<svg xmlns="http://www.w3.org/2000/svg" xmlns:xlink="http://www.w3.org/1999/xlink" width="1440" height="1024"><g><circle id="circle-0" cx="352.8540115108989" cy="218.60430519386242" r="44.32142877666162" style="fill: none;"></circle><path d="M 326.61702159753315,254.32557909458762L 309.77996314113693,229.0453494828259A 44.32142877666162 44.32142877666162 0 1 1 326.61702159753315 254.32557909458762" style="stroke: rgb(0, 0, 0); fill: none; stroke-width: 1.64036;"></path></g><g><circle id="circle-1" cx="814.008378474893" cy="771.921001634662" r="49.19708487926708" style="fill: none;"></circle><path d="M 778.8203818872939,737.5384761781321L 829.1679348748451,725.1177858223433A 49.19708487926708 49.19708487926708 0 0 1 851.6234421857393 740.2120101236288L 851.6234421857393,740.2120101236288L 847.8996966573104,807.5823492322494A 49.19708487926708 49.19708487926708 0 0 1 778.8203818872939 737.5384761781321" style="stroke: rgb(0, 0, 0); fill: none; stroke-width: 1.94915;"></path></g><g><circle id="circle-2" cx="389.9323610318988" cy="18.675147521438838" r="36.61312425709286" style="fill: none;"></circle><path d="M 389.9323610318988 18.675147521438838 m -36.61312425709286, 0 a 36.61312425709286,36.61312425709286 0 1,0 73.22624851418573,0 a 36.61312425709286,36.61312425709286 0 1,0 -73.22624851418573,0" style="stroke: rgb(0, 0, 0); fill: none; stroke-width: 1.15216;"></path></g><g><circle id="circle-3" cx="464.19577478269923" cy="48.99899682252218" r="39.54389130849283" style="fill: none;"></circle><path d="M 452.2431280010713,11.304785400454556L 499.8599412612484,31.917235519652273A 39.54389130849283 39.54389130849283 0 1 1 452.2431280010713 11.304785400454556" style="stroke: rgb(0, 0, 0); fill: none; stroke-width: 1.33778;"></path></g><g><circle id="circle-4" cx="60.82706365424939" cy="784.240627208912" r="32.51208642712491" style="fill: none;"></circle><path d="M 92.57927630513919,791.2286709707607L 84.0408748588876,807.0036396018324A 32.51208642712491 32.51208642712491 0 1 1 92.57927630513919 791.2286709707607" style="stroke: rgb(0, 0, 0); fill: none; stroke-width: 0.892432;"></path></g><g><circle id="circle-5" cx="875.4006294501817" cy="312.63723348706174" r="47.42491593066126" style="fill: none;"></circle><path d="M 861.222615541245,267.3812220341256L 914.7861526157453,286.21937558743A 47.42491593066126 47.42491593066126 0 1 1 861.222615541245 267.3812220341256" style="stroke: rgb(0, 0, 0); fill: none; stroke-width: 1.83691;"></path></g><g><circle id="circle-6" cx="225.47416237925665" cy="274.8078314311644" r="48.812206057906124" style="fill: none;"></circle><path d="M 250.56832049924955,232.94000740735964L 262.5900697387197,306.51021117028245A 48.812206057906124 48.812206057906124 0 1 1 250.56832049924955 232.94000740735964" style="stroke: rgb(0, 0, 0); fill: none; stroke-width: 1.92477;"></path></g><g><circle id="circle-7" cx="951.9823634014555" cy="879.6911521381172" r="37.343571949833574" style="fill: none;"></circle><path d="M 929.6009081848881,849.7977945421364L 964.4094239542294,844.4759490009765A 37.343571949833574 37.343571949833574 0 1 1 929.6009081848881 849.7977945421364" style="stroke: rgb(0, 0, 0); fill: none; stroke-width: 1.19843;"></path></g><g><circle id="circle-8" cx="737.7174203874426" cy="260.1359924248112" r="41.836197223680045" style="fill: none;"></circle><path d="M 698.1657330118537,268.94718093107724L 715.7763092768812,224.5150008415797A 41.836197223680045 41.836197223680045 0 1 1 734.5810333448687 301.85445925255823L 698.1657330118537,268.94718093107724" style="stroke: rgb(0, 0, 0); fill: none; stroke-width: 1.48296;"></path></g><g><circle id="circle-9" cx="616.2156798786311" cy="599.466880918726" r="39.94713194191855" style="fill: none;"></circle><path d="M 616.2156798786311 599.466880918726 m -39.94713194191855, 0 a 39.94713194191855,39.94713194191855 0 1,0 79.8942638838371,0 a 39.94713194191855,39.94713194191855 0 1,0 -79.8942638838371,0" style="stroke: rgb(0, 0, 0); fill: none; stroke-width: 1.36332;"></path></g><g><circle id="circle-10" cx="566.1390251195986" cy="300.1948192591588" r="32.40913282588834" style="fill: none;"></circle><path d="M 536.0232315413101,312.1694118483031L 572.500201370347,268.4160948160194A 32.40913282588834 32.40913282588834 0 1 1 536.0232315413101 312.1694118483031" style="stroke: rgb(0, 0, 0); fill: none; stroke-width: 0.885912;"></path></g><g><circle id="circle-11" cx="117.07177640881716" cy="814.683789915536" r="33.9120209666457" style="fill: none;"></circle><path d="M 84.0408748588876,807.0036396018326L 92.5792763051392,791.2286709707607A 33.9120209666457 33.9120209666457 0 1 1 84.0408748588876 807.0036396018326" style="stroke: rgb(0, 0, 0); fill: none; stroke-width: 0.981095;"></path></g><g><circle id="circle-12" cx="183.0722192242591" cy="447.41815919611724" r="35.55434465974184" style="fill: none;"></circle><path d="M 202.010139595349,477.5091312010554L 169.91985574631695,480.45036710185383A 35.55434465974184 35.55434465974184 0 1 1 210.82070215429442 425.189053967493L 210.82070215429442,425.189053967493L 218.56115271999465,449.5738547959116A 35.55434465974184 35.55434465974184 0 0 1 202.010139595349 477.5091312010554" style="stroke: rgb(0, 0, 0); fill: none; stroke-width: 1.08511;"></path></g><g><circle id="circle-13" cx="593.2674449113922" cy="21.36823367756935" r="33.69447652612945" style="fill: none;"></circle><path d="M 593.2674449113922 21.36823367756935 m -33.69447652612945, 0 a 33.69447652612945,33.69447652612945 0 1,0 67.3889530522589,0 a 33.69447652612945,33.69447652612945 0 1,0 -67.3889530522589,0" style="stroke: rgb(0, 0, 0); fill: none; stroke-width: 0.967317;"></path></g><g><circle id="circle-14" cx="787.0226961606575" cy="358.9313915862611" r="48.33615559308175" style="fill: none;"></circle><path d="M 742.1474744094364,360.0216371200438L 756.2873353033267,321.62560744374144A 48.33615559308175 48.33615559308175 0 1 1 763.7420788303607 401.29171257464475L 742.1474744094364,360.0216371200438" style="stroke: rgb(0, 0, 0); fill: none; stroke-width: 1.89462;"></path></g><g><circle id="circle-15" cx="688.4545226723912" cy="314.6504739338203" r="47.86849672322349" style="fill: none;"></circle><path d="M 708.3380654598527,357.93107114186176L 705.7220635632325,359.2960225375096A 47.86849672322349 47.86849672322349 0 0 1 640.737887051057 310.84053121481827L 640.737887051057,310.84053121481827L 677.6418631805376,271.1080126484982L 677.6418631805376,271.1080126484982L 698.1657330118537,268.9471809310771L 698.1657330118537,268.9471809310772L 734.5810333448687,301.85445925255823A 47.86849672322349 47.86849672322349 0 0 1 735.9076656908766 308.3582409272925L 735.9076656908766,308.3582409272925L 708.3380654598527,357.9310711418618" style="stroke: rgb(0, 0, 0); fill: none; stroke-width: 1.865;"></path></g><g><circle id="circle-16" cx="669.9903729419938" cy="698.8106789290522" r="47.97442878296545" style="fill: none;"></circle><path d="M 699.6572687515195,661.1089401086931L 712.4334545807383,676.4470781890395A 47.97442878296545 47.97442878296545 0 1 1 699.6572687515195 661.1089401086931" style="stroke: rgb(0, 0, 0); fill: none; stroke-width: 1.87171;"></path></g><g><circle id="circle-17" cx="891.068464115523" cy="62.49832192010274" r="48.25507463581934" style="fill: none;"></circle><path d="M 891.068464115523 62.49832192010274 m -48.25507463581934, 0 a 48.25507463581934,48.25507463581934 0 1,0 96.51014927163868,0 a 48.25507463581934,48.25507463581934 0 1,0 -96.51014927163868,0" style="stroke: rgb(0, 0, 0); fill: none; stroke-width: 1.88949;"></path></g><g><circle id="circle-18" cx="827.1204525867084" cy="605.8978725662074" r="32.923446607178235" style="fill: none;"></circle><path d="M 823.916585507371,575.7154116339577L 840.8780669038687,575.9866475027637A 32.923446607178235 32.923446607178235 0 1 1 794.1984456912373 606.2057661683939L 823.916585507371,575.7154116339577" style="stroke: rgb(0, 0, 0); fill: none; stroke-width: 0.918485;"></path></g><g><circle id="circle-19" cx="508.1802559794042" cy="346.19962965947246" r="32.825578018510086" style="fill: none;"></circle><path d="M 508.1802559794042 346.19962965947246 m -32.825578018510086, 0 a 32.825578018510086,32.825578018510086 0 1,0 65.65115603702017,0 a 32.825578018510086,32.825578018510086 0 1,0 -65.65115603702017,0" style="stroke: rgb(0, 0, 0); fill: none; stroke-width: 0.912287;"></path></g><g><circle id="circle-20" cx="975.9939864835138" cy="976.1701550220412" r="39.585989706097166" style="fill: none;"></circle><path d="M 975.9939864835138 976.1701550220412 m -39.585989706097166, 0 a 39.585989706097166,39.585989706097166 0 1,0 79.17197941219433,0 a 39.585989706097166,39.585989706097166 0 1,0 -79.17197941219433,0" style="stroke: rgb(0, 0, 0); fill: none; stroke-width: 1.34045;"></path></g><g><circle id="circle-21" cx="543.6344124897728" cy="833.1175272631012" r="31.7930220051566" style="fill: none;"></circle><path d="M 543.6344124897728 833.1175272631012 m -31.7930220051566, 0 a 31.7930220051566,31.7930220051566 0 1,0 63.5860440103132,0 a 31.7930220051566,31.7930220051566 0 1,0 -63.5860440103132,0" style="stroke: rgb(0, 0, 0); fill: none; stroke-width: 0.846891;"></path></g><g><circle id="circle-22" cx="283.25022996919944" cy="406.79385780726585" r="45.75910604437823" style="fill: none;"></circle><path d="M 266.54020727723724,449.3928123439063L 238.55714637938877,396.97428219449887A 45.75910604437823 45.75910604437823 0 0 1 279.6827301803096 361.17402953888103L 279.6827301803096,361.17402953888103L 315.22676853849674,374.06166009451067A 45.75910604437823 45.75910604437823 0 0 1 327.3007366005442 394.40641854394346L 327.3007366005442,394.40641854394346L 320.35844885297865,433.5683956604985A 45.75910604437823 45.75910604437823 0 0 1 266.54020727723724 449.3928123439063" style="stroke: rgb(0, 0, 0); fill: none; stroke-width: 1.73141;"></path></g><g><circle id="circle-23" cx="528.3932256169459" cy="268.72629337310497" r="44.10806653273228" style="fill: none;"></circle><path d="M 572.5002013703471,268.4160948160193L 536.0232315413101,312.1694118483031A 44.10806653273228 44.10806653273228 0 1 1 572.5002013703471 268.4160948160193" style="stroke: rgb(0, 0, 0); fill: none; stroke-width: 1.62684;"></path></g><g><circle id="circle-24" cx="190.24214341733403" cy="525.6454453751543" r="49.55391484346446" style="fill: none;"></circle><path d="M 169.9198557463169,480.4503671018539L 202.010139595349,477.5091312010554A 49.55391484346446 49.55391484346446 0 1 1 169.9198557463169 480.4503671018539" style="stroke: rgb(0, 0, 0); fill: none; stroke-width: 1.97175;"></path></g><g><circle id="circle-25" cx="357.5037882342789" cy="843.5428802320455" r="32.19364080665152" style="fill: none;"></circle><path d="M 329.94822924683274,826.8959082167788L 343.7091246089922,814.4544329745363A 32.19364080665152 32.19364080665152 0 0 1 384.47229235306634 825.9607787085461L 384.47229235306634,825.9607787085461L 365.1570296308652,874.8136078301247A 32.19364080665152 32.19364080665152 0 0 1 329.94822924683274 826.8959082167788" style="stroke: rgb(0, 0, 0); fill: none; stroke-width: 0.872264;"></path></g><g><circle id="circle-26" cx="408.71169168279243" cy="863.7892841015044" r="44.92821274133892" style="fill: none;"></circle><path d="M 451.09015239658066,878.7094170654199L 447.3727993873097,886.6773388722953A 44.92821274133892 44.92821274133892 0 0 1 365.1570296308652 874.8136078301247L 365.1570296308652,874.8136078301247L 384.47229235306634,825.9607787085461A 44.92821274133892 44.92821274133892 0 0 1 451.09015239658066 878.7094170654199" style="stroke: rgb(0, 0, 0); fill: none; stroke-width: 1.67879;"></path></g><g><circle id="circle-27" cx="938.6602593955347" cy="198.56179942150231" r="34.14775861224475" style="fill: none;"></circle><path d="M 938.6602593955347 198.56179942150231 m -34.14775861224475, 0 a 34.14775861224475,34.14775861224475 0 1,0 68.2955172244895,0 a 34.14775861224475,34.14775861224475 0 1,0 -68.2955172244895,0" style="stroke: rgb(0, 0, 0); fill: none; stroke-width: 0.996025;"></path></g><g><circle id="circle-28" cx="357.69684144696834" cy="935.553004686642" r="38.07950810247035" style="fill: none;"></circle><path d="M 357.69684144696834 935.553004686642 m -38.07950810247035, 0 a 38.07950810247035,38.07950810247035 0 1,0 76.1590162049407,0 a 38.07950810247035,38.07950810247035 0 1,0 -76.1590162049407,0" style="stroke: rgb(0, 0, 0); fill: none; stroke-width: 1.24504;"></path></g><g><circle id="circle-29" cx="215.16451203842846" cy="181.46191191073814" r="38.665835584893756" style="fill: none;"></circle><path d="M 243.42319988431137,155.07075046022624L 252.22046884605862,170.42094698238688A 38.665835584893756 38.665835584893756 0 1 1 243.42319988431137 155.07075046022624" style="stroke: rgb(0, 0, 0); fill: none; stroke-width: 1.28217;"></path></g><g><circle id="circle-30" cx="26.913132554093444" cy="860.0009390735852" r="40.096039057173556" style="fill: none;"></circle><path d="M 26.913132554093444 860.0009390735852 m -40.096039057173556, 0 a 40.096039057173556,40.096039057173556 0 1,0 80.19207811434711,0 a 40.096039057173556,40.096039057173556 0 1,0 -80.19207811434711,0" style="stroke: rgb(0, 0, 0); fill: none; stroke-width: 1.37275;"></path></g><g><circle id="circle-31" cx="242.47173999689474" cy="428.56301014642594" r="31.830359357240653" style="fill: none;"></circle><path d="M 218.56115271999465,449.5738547959116L 210.82070215429442,425.18905396749295A 31.830359357240653 31.830359357240653 0 0 1 238.55714637938877 396.97428219449887L 238.55714637938877,396.97428219449887L 266.5402072772373,449.3928123439063A 31.830359357240653 31.830359357240653 0 0 1 218.56115271999465 449.5738547959116" style="stroke: rgb(0, 0, 0); fill: none; stroke-width: 0.849256;"></path></g><g><circle id="circle-32" cx="480.9000561080341" cy="998.8396719511967" r="39.71269861732874" style="fill: none;"></circle><path d="M 480.9000561080341 998.8396719511967 m -39.71269861732874, 0 a 39.71269861732874,39.71269861732874 0 1,0 79.42539723465748,0 a 39.71269861732874,39.71269861732874 0 1,0 -79.42539723465748,0" style="stroke: rgb(0, 0, 0); fill: none; stroke-width: 1.34847;"></path></g><g><circle id="circle-33" cx="638.9777873248861" cy="268.69596799981446" r="42.18130106610655" style="fill: none;"></circle><path d="M 596.9592556465477,264.99392056278714L 650.8553770633692,235.73806085214937L 650.8553770633692,235.73806085214937L 677.6418631805377,271.1080126484981L 677.6418631805377,271.1080126484981L 640.737887051057,310.84053121481827A 42.18130106610655 42.18130106610655 0 0 1 596.9592556465477 264.99392056278714" style="stroke: rgb(0, 0, 0); fill: none; stroke-width: 1.50482;"></path></g><g><circle id="circle-34" cx="727.7432530832757" cy="389.9494139535076" r="37.74338608524731" style="fill: none;"></circle><path d="M 705.7220635632325,359.2960225375096L 708.3380654598528,357.93107114186176L 708.3380654598529,357.93107114186176L 742.1474744094364,360.02163712004386L 742.1474744094364,360.02163712004386L 763.7420788303607,401.29171257464475A 37.74338608524731 37.74338608524731 0 1 1 705.7220635632325 359.2960225375096" style="stroke: rgb(0, 0, 0); fill: none; stroke-width: 1.22375;"></path></g><g><circle id="circle-35" cx="44.162507744737844" cy="323.320302715792" r="40.097110640097725" style="fill: none;"></circle><path d="M 44.162507744737844 323.320302715792 m -40.097110640097725, 0 a 40.097110640097725,40.097110640097725 0 1,0 80.19422128019545,0 a 40.097110640097725,40.097110640097725 0 1,0 -80.19422128019545,0" style="stroke: rgb(0, 0, 0); fill: none; stroke-width: 1.37282;"></path></g><g><circle id="circle-36" cx="25.371916111331274" cy="693.184609035731" r="42.65296495512524" style="fill: none;"></circle><path d="M 25.371916111331274 693.184609035731 m -42.65296495512524, 0 a 42.65296495512524,42.65296495512524 0 1,0 85.30592991025048,0 a 42.65296495512524,42.65296495512524 0 1,0 -85.30592991025048,0" style="stroke: rgb(0, 0, 0); fill: none; stroke-width: 1.53469;"></path></g><g><circle id="circle-37" cx="59.611454776988815" cy="464.1620089855982" r="46.013655160941084" style="fill: none;"></circle><path d="M 13.778228875815643,460.0911534536457L 66.33996121263509,418.6429617370511A 46.013655160941084 46.013655160941084 0 1 1 13.778228875815643 460.0911534536457" style="stroke: rgb(0, 0, 0); fill: none; stroke-width: 1.74753;"></path></g><g><circle id="circle-38" cx="254.97381119243911" cy="740.6301131146962" r="32.656447515367304" style="fill: none;"></circle><path d="M 270.8244177266872,769.1818527608261L 223.57469253991204,749.6044605655399A 32.656447515367304 32.656447515367304 0 1 1 270.8244177266872 769.1818527608261" style="stroke: rgb(0, 0, 0); fill: none; stroke-width: 0.901575;"></path></g><g><circle id="circle-39" cx="22.9829993287729" cy="417.71233310240575" r="43.36694839914726" style="fill: none;"></circle><path d="M 66.3399612126351,418.64296173705105L 13.778228875815634,460.0911534536457A 43.36694839914726 43.36694839914726 0 1 1 66.3399612126351 418.64296173705105" style="stroke: rgb(0, 0, 0); fill: none; stroke-width: 1.57991;"></path></g><g><circle id="circle-40" cx="730.9383230042359" cy="338.2775572852035" r="30.329191516788384" style="fill: none;"></circle><path d="M 742.1474744094363,360.02163712004386L 708.3380654598527,357.93107114186176L 708.3380654598527,357.93107114186176L 735.9076656908766,308.3582409272925A 30.329191516788384 30.329191516788384 0 0 1 756.2873353033268 321.6256074437414L 756.2873353033268,321.6256074437414L 742.1474744094363,360.02163712004386" style="stroke: rgb(0, 0, 0); fill: none; stroke-width: 0.754182;"></path></g><g><circle id="circle-41" cx="792.6764344287059" cy="572.3262016860642" r="33.913734795737355" style="fill: none;"></circle><path d="M 823.9165855073711,575.7154116339578L 794.1984456912373,606.2057661683939A 33.913734795737355 33.913734795737355 0 0 1 784.7812567735864 539.3442736406981L 823.9165855073711,575.7154116339578" style="stroke: rgb(0, 0, 0); fill: none; stroke-width: 0.981203;"></path></g><g><circle id="circle-42" cx="248.19312842962904" cy="24.950984496033612" r="37.8357443414168" style="fill: none;"></circle><path d="M 248.19312842962904 24.950984496033612 m -37.8357443414168, 0 a 37.8357443414168,37.8357443414168 0 1,0 75.6714886828336,0 a 37.8357443414168,37.8357443414168 0 1,0 -75.6714886828336,0" style="stroke: rgb(0, 0, 0); fill: none; stroke-width: 1.2296;"></path></g><g><circle id="circle-43" cx="557.4358904189858" cy="447.7795172954169" r="33.32323757371241" style="fill: none;"></circle><path d="M 590.5313152030851,451.66937857239066L 571.3220602498704,478.0716359044199A 33.32323757371241 33.32323757371241 0 1 1 590.5313152030851 451.66937857239066" style="stroke: rgb(0, 0, 0); fill: none; stroke-width: 0.943805;"></path></g><g><circle id="circle-44" cx="797.8046046718148" cy="56.81248849040155" r="38.86691794013308" style="fill: none;"></circle><path d="M 797.8046046718148 56.81248849040155 m -38.86691794013308, 0 a 38.86691794013308,38.86691794013308 0 1,0 77.73383588026616,0 a 38.86691794013308,38.86691794013308 0 1,0 -77.73383588026616,0" style="stroke: rgb(0, 0, 0); fill: none; stroke-width: 1.2949;"></path></g><g><circle id="circle-45" cx="484.19033114605935" cy="2.809579695080666" r="33.05740928693223" style="fill: none;"></circle><path d="M 499.8599412612484,31.91723551965228L 452.2431280010713,11.304785400454547A 33.05740928693223 33.05740928693223 0 1 1 499.8599412612484 31.91723551965228" style="stroke: rgb(0, 0, 0); fill: none; stroke-width: 0.926969;"></path></g><g><circle id="circle-46" cx="119.87388663698017" cy="36.09337682160518" r="35.827742545394294" style="fill: none;"></circle><path d="M 119.87388663698017 36.09337682160518 m -35.827742545394294, 0 a 35.827742545394294,35.827742545394294 0 1,0 71.65548509078859,0 a 35.827742545394294,35.827742545394294 0 1,0 -71.65548509078859,0" style="stroke: rgb(0, 0, 0); fill: none; stroke-width: 1.10242;"></path></g><g><circle id="circle-47" cx="910.124924554575" cy="400.15173992676466" r="44.92560809214382" style="fill: none;"></circle><path d="M 944.9018528995668,428.5924768605398L 919.4662365984789,444.09545565207986A 44.92560809214382 44.92560809214382 0 1 1 944.9018528995668 428.5924768605398" style="stroke: rgb(0, 0, 0); fill: none; stroke-width: 1.67862;"></path></g><g><circle id="circle-48" cx="729.9149238293263" cy="648.8954158209406" r="32.62967769278529" style="fill: none;"></circle><path d="M 712.4334545807383,676.4470781890395L 699.6572687515195,661.1089401086931A 32.62967769278529 32.62967769278529 0 1 1 712.4334545807383 676.4470781890395" style="stroke: rgb(0, 0, 0); fill: none; stroke-width: 0.89988;"></path></g><g><circle id="circle-49" cx="156.0399631274496" cy="343.89448231793153" r="38.090838711274436" style="fill: none;"></circle><path d="M 156.0399631274496 343.89448231793153 m -38.090838711274436, 0 a 38.090838711274436,38.090838711274436 0 1,0 76.18167742254887,0 a 38.090838711274436,38.090838711274436 0 1,0 -76.18167742254887,0" style="stroke: rgb(0, 0, 0); fill: none; stroke-width: 1.24575;"></path></g><g><circle id="circle-50" cx="952.107533824415" cy="469.0322792776198" r="41.076750810199044" style="fill: none;"></circle><path d="M 919.4662365984789,444.09545565207986L 944.9018528995668,428.5924768605398A 41.076750810199044 41.076750810199044 0 1 1 919.4662365984789 444.09545565207986" style="stroke: rgb(0, 0, 0); fill: none; stroke-width: 1.43486;"></path></g><g><circle id="circle-51" cx="312.2524967273799" cy="793.492683185093" r="37.800984007264425" style="fill: none;"></circle><path d="M 343.7091246089923,814.4544329745363L 329.94822924683274,826.8959082167788A 37.800984007264425 37.800984007264425 0 1 1 343.7091246089923 814.4544329745363" style="stroke: rgb(0, 0, 0); fill: none; stroke-width: 1.2274;"></path></g><g><circle id="circle-52" cx="550.5615283645411" cy="125.07477643209519" r="33.463019454752185" style="fill: none;"></circle><path d="M 550.5615283645411 125.07477643209519 m -33.463019454752185, 0 a 33.463019454752185,33.463019454752185 0 1,0 66.92603890950437,0 a 33.463019454752185,33.463019454752185 0 1,0 -66.92603890950437,0" style="stroke: rgb(0, 0, 0); fill: none; stroke-width: 0.952658;"></path></g><g><circle id="circle-53" cx="240.47591623353637" cy="775.6205523806483" r="31.023997093767232" style="fill: none;"></circle><path d="M 223.574692539912,749.60446056554L 270.8244177266872,769.1818527608261A 31.023997093767232 31.023997093767232 0 1 1 223.574692539912 749.60446056554" style="stroke: rgb(0, 0, 0); fill: none; stroke-width: 0.798186;"></path></g><g><circle id="circle-54" cx="414.4442531622337" cy="654.549848802058" r="32.59481047902129" style="fill: none;"></circle><path d="M 389.2897726178565,675.2784227690695L 404.83218522848824,623.4045470664771A 32.59481047902129 32.59481047902129 0 1 1 389.2897726178565 675.2784227690695" style="stroke: rgb(0, 0, 0); fill: none; stroke-width: 0.897671;"></path></g><g><circle id="circle-55" cx="481.5165968810955" cy="897.7556733292531" r="35.89607780296993" style="fill: none;"></circle><path d="M 447.3727993873097,886.6773388722953L 451.09015239658066,878.7094170654199A 35.89607780296993 35.89607780296993 0 1 1 447.3727993873097 886.6773388722953" style="stroke: rgb(0, 0, 0); fill: none; stroke-width: 1.10675;"></path></g><g><circle id="circle-56" cx="310.0957779617708" cy="332.75393375173866" r="41.625176515034646" style="fill: none;"></circle><path d="M 315.22676853849674,374.06166009451067L 279.6827301803096,361.17402953888103A 41.625176515034646 41.625176515034646 0 0 1 274.95468941636454 310.4434156996694L 274.95468941636454,310.4434156996694L 319.38091732314666,292.17756739214923A 41.625176515034646 41.625176515034646 0 0 1 315.22676853849674 374.06166009451067" style="stroke: rgb(0, 0, 0); fill: none; stroke-width: 1.46959;"></path></g><g><circle id="circle-57" cx="278.79319506689603" cy="144.99601797413052" r="36.776851331815415" style="fill: none;"></circle><path d="M 252.22046884605862,170.42094698238685L 243.42319988431137,155.07075046022624A 36.776851331815415 36.776851331815415 0 0 1 270.3048026677001 109.21216703044749L 270.3048026677001,109.21216703044749L 314.37845165857846,154.281830118826A 36.776851331815415 36.776851331815415 0 0 1 252.22046884605862 170.42094698238685" style="stroke: rgb(0, 0, 0); fill: none; stroke-width: 1.16253;"></path></g><g><circle id="circle-58" cx="895.0334956196044" cy="256.81404720880164" r="35.42373209392491" style="fill: none;"></circle><path d="M 914.7861526157454,286.21937558743L 861.222615541245,267.3812220341256A 35.42373209392491 35.42373209392491 0 1 1 914.7861526157454 286.21937558743" style="stroke: rgb(0, 0, 0); fill: none; stroke-width: 1.07684;"></path></g><g><circle id="circle-59" cx="941.39598393656" cy="810.4489778408661" r="41.078622028712815" style="fill: none;"></circle><path d="M 964.4094239542294,844.4759490009765L 929.6009081848881,849.7977945421364A 41.078622028712815 41.078622028712815 0 0 1 900.4534205887185 807.1083649800522L 900.4534205887185,807.1083649800522L 915.2313612519979,778.7809228397716A 41.078622028712815 41.078622028712815 0 1 1 964.4094239542294 844.4759490009765" style="stroke: rgb(0, 0, 0); fill: none; stroke-width: 1.43498;"></path></g><g><circle id="circle-60" cx="595.2450202555233" cy="904.487233217333" r="43.932553196487575" style="fill: none;"></circle><path d="M 613.4679310390999,864.5123066641045L 638.6621825273809,911.196871853012A 43.932553196487575 43.932553196487575 0 1 1 613.4679310390999 864.5123066641045" style="stroke: rgb(0, 0, 0); fill: none; stroke-width: 1.61573;"></path></g><g><circle id="circle-61" cx="15.472797426940632" cy="562.4290672830399" r="37.22679455675829" style="fill: none;"></circle><path d="M 15.472797426940632 562.4290672830399 m -37.22679455675829, 0 a 37.22679455675829,37.22679455675829 0 1,0 74.45358911351659,0 a 37.22679455675829,37.22679455675829 0 1,0 -74.45358911351659,0" style="stroke: rgb(0, 0, 0); fill: none; stroke-width: 1.19103;"></path></g><g><circle id="circle-62" cx="1.8199938349539035" cy="10.821417553178225" r="31.799588038382744" style="fill: none;"></circle><path d="M 1.8199938349539035 10.821417553178225 m -31.799588038382744, 0 a 31.799588038382744,31.799588038382744 0 1,0 63.59917607676549,0 a 31.799588038382744,31.799588038382744 0 1,0 -63.59917607676549,0" style="stroke: rgb(0, 0, 0); fill: none; stroke-width: 0.847307;"></path></g><g><circle id="circle-63" cx="111.31690313417097" cy="698.305449742039" r="42.98487837269685" style="fill: none;"></circle><path d="M 111.31690313417097 698.305449742039 m -42.98487837269685, 0 a 42.98487837269685,42.98487837269685 0 1,0 85.9697567453937,0 a 42.98487837269685,42.98487837269685 0 1,0 -85.9697567453937,0" style="stroke: rgb(0, 0, 0); fill: none; stroke-width: 1.55571;"></path></g><g><circle id="circle-64" cx="873.8869147654624" cy="775.2306544390124" r="41.4965981858203" style="fill: none;"></circle><path d="M 915.2313612519979,778.7809228397716L 900.4534205887185,807.1083649800522A 41.4965981858203 41.4965981858203 0 0 1 847.8996966573104 807.5823492322494L 847.8996966573104,807.5823492322494L 851.6234421857393,740.2120101236288A 41.4965981858203 41.4965981858203 0 0 1 915.2313612519979 778.7809228397716" style="stroke: rgb(0, 0, 0); fill: none; stroke-width: 1.46145;"></path></g><g><circle id="circle-65" cx="84.34053858386959" cy="189.5166860645352" r="40.53550595800489" style="fill: none;"></circle><path d="M 84.34053858386959 189.5166860645352 m -40.53550595800489, 0 a 40.53550595800489,40.53550595800489 0 1,0 81.07101191600978,0 a 40.53550595800489,40.53550595800489 0 1,0 -81.07101191600978,0" style="stroke: rgb(0, 0, 0); fill: none; stroke-width: 1.40058;"></path></g><g><circle id="circle-66" cx="988.9627217444363" cy="603.7341291888628" r="37.78329842066495" style="fill: none;"></circle><path d="M 988.9627217444363 603.7341291888628 m -37.78329842066495, 0 a 37.78329842066495,37.78329842066495 0 1,0 75.5665968413299,0 a 37.78329842066495,37.78329842066495 0 1,0 -75.5665968413299,0" style="stroke: rgb(0, 0, 0); fill: none; stroke-width: 1.22628;"></path></g><g><circle id="circle-67" cx="559.2618342111131" cy="544.8570721235728" r="30.729532091307625" style="fill: none;"></circle><path d="M 576.8616111929283,519.6667566682024L 589.9432210379913,543.1375823939819A 30.729532091307625 30.729532091307625 0 1 1 576.8616111929283 519.6667566682024" style="stroke: rgb(0, 0, 0); fill: none; stroke-width: 0.779537;"></path></g><g><circle id="circle-68" cx="661.7882110416517" cy="868.5758805740245" r="48.49084544990321" style="fill: none;"></circle><path d="M 638.6621825273809,911.196871853012L 613.4679310390999,864.5123066641045A 48.49084544990321 48.49084544990321 0 1 1 638.6621825273809 911.196871853012" style="stroke: rgb(0, 0, 0); fill: none; stroke-width: 1.90442;"></path></g><g><circle id="circle-69" cx="350.6610101954144" cy="418.7438426669541" r="33.73444227151959" style="fill: none;"></circle><path d="M 320.35844885297865,433.5683956604985L 327.3007366005442,394.4064185439435A 33.73444227151959 33.73444227151959 0 1 1 320.35844885297865 433.5683956604985" style="stroke: rgb(0, 0, 0); fill: none; stroke-width: 0.969848;"></path></g><g><circle id="circle-70" cx="136.75871793723383" cy="923.1423823271952" r="30.244699124334144" style="fill: none;"></circle><path d="M 136.75871793723383 923.1423823271952 m -30.244699124334144, 0 a 30.244699124334144,30.244699124334144 0 1,0 60.48939824866829,0 a 30.244699124334144,30.244699124334144 0 1,0 -60.48939824866829,0" style="stroke: rgb(0, 0, 0); fill: none; stroke-width: 0.748831;"></path></g><g><circle id="circle-71" cx="797.2140901050894" cy="703.8449688726969" r="38.38724966108943" style="fill: none;"></circle><path d="M 829.1679348748452,725.1177858223433L 778.820381887294,737.5384761781321A 38.38724966108943 38.38724966108943 0 1 1 829.1679348748452 725.1177858223433" style="stroke: rgb(0, 0, 0); fill: none; stroke-width: 1.26453;"></path></g><g><circle id="circle-72" cx="282.4437826419062" cy="265.4987028161018" r="45.56439106942153" style="fill: none;"></circle><path d="M 319.3809173231467,292.17756739214923L 274.95468941636454,310.4434156996694A 45.56439106942153 45.56439106942153 0 0 1 262.5900697387197 306.51021117028245L 262.5900697387197,306.51021117028245L 250.56832049924958,232.94000740735967A 45.56439106942153 45.56439106942153 0 0 1 309.77996314113693 229.04534948282588L 309.77996314113693,229.04534948282588L 326.61702159753315,254.32557909458765A 45.56439106942153 45.56439106942153 0 0 1 319.3809173231467 292.17756739214923" style="stroke: rgb(0, 0, 0); fill: none; stroke-width: 1.71908;"></path></g><g><circle id="circle-73" cx="616.0815800513153" cy="226.51581060890447" r="42.96775810144454" style="fill: none;"></circle><path d="M 650.8553770633692,235.73806085214946L 596.9592556465478,264.99392056278714A 42.96775810144454 42.96775810144454 0 1 1 655.3627809972662 209.10272677782842L 650.8553770633692,235.73806085214946" style="stroke: rgb(0, 0, 0); fill: none; stroke-width: 1.55462;"></path></g><g><circle id="circle-74" cx="610.4809235966313" cy="516.3097959523377" r="33.78649658880951" style="fill: none;"></circle><path d="M 589.9432210379913,543.1375823939819L 576.8616111929283,519.6667566682024A 33.78649658880951 33.78649658880951 0 0 1 579.7800279657887 502.20368524776194L 579.7800279657887,502.20368524776194L 632.4006032964871,490.5988062086237A 33.78649658880951 33.78649658880951 0 0 1 589.9432210379913 543.1375823939819" style="stroke: rgb(0, 0, 0); fill: none; stroke-width: 0.973145;"></path></g><g><circle id="circle-75" cx="828.2697471379714" cy="534.0278126210962" r="43.81225344519669" style="fill: none;"></circle><path d="M 823.9165855073711,575.7154116339577L 784.7812567735865,539.3442736406981A 43.81225344519669 43.81225344519669 0 1 1 840.8780669038687 575.9866475027637L 823.9165855073711,575.7154116339577" style="stroke: rgb(0, 0, 0); fill: none; stroke-width: 1.60811;"></path></g><g><circle id="circle-76" cx="680.3198893062796" cy="237.38663381820913" r="37.72050705672876" style="fill: none;"></circle><path d="M 698.1657330118537,268.94718093107724L 677.6418631805376,271.1080126484982L 677.6418631805376,271.1080126484982L 650.8553770633694,235.73806085214937L 650.8553770633694,235.73806085214937L 655.3627809972662,209.10272677782842A 37.72050705672876 37.72050705672876 0 0 1 715.7763092768812 224.51500084157973L 715.7763092768812,224.51500084157973L 698.1657330118537,268.9471809310772" style="stroke: rgb(0, 0, 0); fill: none; stroke-width: 1.2223;"></path></g><g><circle id="circle-77" cx="368.144906328632" cy="640.6776724446122" r="40.55018240901775" style="fill: none;"></circle><path d="M 404.83218522848824,623.4045470664771L 389.2897726178565,675.2784227690695A 40.55018240901775 40.55018240901775 0 1 1 404.83218522848824 623.4045470664771" style="stroke: rgb(0, 0, 0); fill: none; stroke-width: 1.40151;"></path></g><g><circle id="circle-78" cx="602.6168725871947" cy="480.65144163852636" r="31.400966177079237" style="fill: none;"></circle><path d="M 632.4006032964871,490.59880620862367L 579.7800279657888,502.20368524776194A 31.400966177079237 31.400966177079237 0 0 1 571.3220602498704 478.0716359044199L 571.3220602498704,478.0716359044199L 590.5313152030851,451.66937857239066A 31.400966177079237 31.400966177079237 0 0 1 632.4006032964871 490.59880620862367" style="stroke: rgb(0, 0, 0); fill: none; stroke-width: 0.822061;"></path></g><g><circle id="circle-79" cx="316.9226971981056" cy="107.70915630328726" r="46.64211757300447" style="fill: none;"></circle><path d="M 314.37845165857846,154.281830118826L 270.3048026677001,109.2121670304475A 46.64211757300447 46.64211757300447 0 1 1 314.37845165857846 154.281830118826" style="stroke: rgb(0, 0, 0); fill: none; stroke-width: 1.78733;"></path></g></svg>