<svg id="canvas" height="1200" width="1200" xmlns="http://www.w3.org/2000/svg" xmlns:xlink="http://www.w3.org/1999/xlink"><g><g transform="translate(600,600)"><rect width="25" height="25" x="0" y="0" style="fill: rgb(254, 224, 147); opacity: 0.8;"></rect></g><g transform="translate(600,575)"><rect width="25" height="25" x="0" y="0" style="fill: rgb(252, 172, 100); opacity: 0.8;"></rect></g><g transform="translate(625,600)"><rect width="25" height="25" x="0" y="0" style="fill: rgb(252, 245, 183); opacity: 0.8;"></rect></g><g transform="translate(600,625)"><rect width="25" height="25" x="0" y="0" style="fill: rgb(251, 164, 95); opacity: 0.8;"></rect></g><g transform="translate(575,600)"><rect width="25" height="25" x="0" y="0" style="fill: rgb(250, 152, 88); opacity: 0.8;"></rect></g><g transform="translate(575,625)"><rect width="25" height="25" x="0" y="0" style="fill: rgb(235, 94, 60); opacity: 0.8;"></rect></g><g transform="translate(575,575)"><rect width="25" height="25" x="0" y="0" style="fill: rgb(251, 162, 94); opacity: 0.8;"></rect></g><g transform="translate(625,625)"><rect width="25" height="25" x="0" y="0" style="fill: rgb(251, 165, 96); opacity: 0.8;"></rect></g><g transform="translate(625,575)"><rect width="25" height="25" x="0" y="0" style="fill: rgb(252, 173, 101); opacity: 0.8;"></rect></g><g transform="translate(600,550)"><rect width="25" height="25" x="0" y="0" style="fill: rgb(238, 103, 64); opacity: 0.8;"></rect></g><g transform="translate(650,600)"><rect width="25" height="25" x="0" y="0" style="fill: rgb(250, 152, 88); opacity: 0.8;"></rect></g><g transform="translate(550,600)"><rect width="25" height="25" x="0" y="0" style="fill: rgb(249, 149, 86); opacity: 0.8;"></rect></g><g transform="translate(600,650)"><rect width="25" height="25" x="0" y="0" style="fill: rgb(236, 97, 61); opacity: 0.8;"></rect></g><g transform="translate(575,650)"><rect width="25" height="25" x="0" y="0" style="fill: rgb(248, 142, 83); opacity: 0.8;"></rect></g><g transform="translate(550,625)"><rect width="25" height="25" x="0" y="0" style="fill: rgb(253, 196, 118); opacity: 0.8;"></rect></g><g transform="translate(550,575)"><rect width="25" height="25" x="0" y="0" style="fill: rgb(243, 119, 72); opacity: 0.8;"></rect></g><g transform="translate(625,550)"><rect width="25" height="25" x="0" y="0" style="fill: rgb(254, 223, 147); opacity: 0.8;"></rect></g><g transform="translate(625,650)"><rect width="25" height="25" x="0" y="0" style="fill: rgb(248, 145, 84); opacity: 0.8;"></rect></g><g transform="translate(650,575)"><rect width="25" height="25" x="0" y="0" style="fill: rgb(254, 205, 127); opacity: 0.8;"></rect></g><g transform="translate(650,625)"><rect width="25" height="25" x="0" y="0" style="fill: rgb(254, 230, 155); opacity: 0.8;"></rect></g><g transform="translate(575,550)"><rect width="25" height="25" x="0" y="0" style="fill: rgb(251, 168, 97); opacity: 0.8;"></rect></g><g transform="translate(550,550)"><rect width="25" height="25" x="0" y="0" style="fill: rgb(250, 157, 91); opacity: 0.8;"></rect></g><g transform="translate(550,650)"><rect width="25" height="25" x="0" y="0" style="fill: rgb(251, 168, 98); opacity: 0.8;"></rect></g><g transform="translate(650,550)"><rect width="25" height="25" x="0" y="0" style="fill: rgb(249, 151, 88); opacity: 0.8;"></rect></g><g transform="translate(650,650)"><rect width="25" height="25" x="0" y="0" style="fill: rgb(254, 222, 146); opacity: 0.8;"></rect></g><g transform="translate(600,675)"><rect width="25" height="25" x="0" y="0" style="fill: rgb(254, 218, 141); opacity: 0.8;"></rect></g><g transform="translate(525,600)"><rect width="25" height="25" x="0" y="0" style="fill: rgb(252, 178, 105); opacity: 0.8;"></rect></g><g transform="translate(600,525)"></g><g transform="translate(675,600)"><rect width="25" height="25" x="0" y="0" style="fill: rgb(248, 143, 83); opacity: 0.8;"></rect></g><g transform="translate(575,675)"></g><g transform="translate(625,525)"></g><g transform="translate(575,525)"></g><g transform="translate(675,625)"></g><g transform="translate(525,575)"><rect width="25" height="25" x="0" y="0" style="fill: rgb(254, 207, 129); opacity: 0.8;"></rect></g><g transform="translate(525,625)"><rect width="25" height="25" x="0" y="0" style="fill: rgb(252, 176, 103); opacity: 0.8;"></rect></g><g transform="translate(675,575)"></g><g transform="translate(625,675)"></g><g transform="translate(650,525)"><rect width="25" height="25" x="0" y="0" style="fill: rgb(254, 233, 160); opacity: 0.8;"></rect></g><g transform="translate(675,550)"></g><g transform="translate(550,525)"></g><g transform="translate(550,675)"><rect width="25" height="25" x="0" y="0" style="fill: rgb(253, 195, 118); opacity: 0.8;"></rect></g><g transform="translate(650,675)"></g><g transform="translate(525,550)"><rect width="25" height="25" x="0" y="0" style="fill: rgb(227, 76, 52); opacity: 0.8;"></rect></g><g transform="translate(525,650)"><rect width="25" height="25" x="0" y="0" style="fill: rgb(252, 245, 181); opacity: 0.8;"></rect></g><g transform="translate(675,650)"></g><g transform="translate(600,700)"></g><g transform="translate(500,600)"></g><g transform="translate(700,600)"><rect width="25" height="25" x="0" y="0" style="fill: rgb(253, 188, 112); opacity: 0.8;"></rect></g><g transform="translate(600,500)"><rect width="25" height="25" x="0" y="0" style="fill: rgb(243, 119, 72); opacity: 0.8;"></rect></g><g transform="translate(700,575)"><rect width="25" height="25" x="0" y="0" style="fill: rgb(253, 198, 121); opacity: 0.8;"></rect></g><g transform="translate(625,700)"></g><g transform="translate(700,625)"><rect width="25" height="25" x="0" y="0" style="fill: rgb(251, 247, 187); opacity: 0.8;"></rect></g><g transform="translate(575,500)"><rect width="25" height="25" x="0" y="0" style="fill: rgb(253, 184, 109); opacity: 0.8;"></rect></g><g transform="translate(500,625)"><rect width="25" height="25" x="0" y="0" style="fill: rgb(243, 119, 72); opacity: 0.8;"></rect></g><g transform="translate(500,575)"></g><g transform="translate(625,500)"></g><g transform="translate(575,700)"><rect width="25" height="25" x="0" y="0" style="fill: rgb(241, 112, 69); opacity: 0.8;"></rect></g><g transform="translate(525,675)"></g><g transform="translate(675,675)"><rect width="25" height="25" x="0" y="0" style="fill: rgb(230, 82, 55); opacity: 0.8;"></rect></g><g transform="translate(675,525)"><rect width="25" height="25" x="0" y="0" style="fill: rgb(252, 181, 107); opacity: 0.8;"></rect></g><g transform="translate(525,525)"><rect width="25" height="25" x="0" y="0" style="fill: rgb(249, 146, 85); opacity: 0.8;"></rect></g><g transform="translate(650,700)"></g><g transform="translate(550,500)"><rect width="25" height="25" x="0" y="0" style="fill: rgb(231, 84, 56); opacity: 0.8;"></rect></g><g transform="translate(500,550)"></g><g transform="translate(500,650)"></g><g transform="translate(550,700)"></g><g transform="translate(700,550)"><rect width="25" height="25" x="0" y="0" style="fill: rgb(253, 194, 117); opacity: 0.8;"></rect></g><g transform="translate(650,500)"><rect width="25" height="25" x="0" y="0" style="fill: rgb(254, 208, 130); opacity: 0.8;"></rect></g><g transform="translate(700,650)"></g><g transform="translate(675,500)"></g><g transform="translate(675,700)"><rect width="25" height="25" x="0" y="0" style="fill: rgb(250, 154, 89); opacity: 0.8;"></rect></g><g transform="translate(700,675)"><rect width="25" height="25" x="0" y="0" style="fill: rgb(234, 90, 58); opacity: 0.8;"></rect></g><g transform="translate(600,725)"></g><g transform="translate(475,600)"></g><g transform="translate(525,700)"></g><g transform="translate(500,525)"></g><g transform="translate(525,500)"></g><g transform="translate(500,675)"><rect width="25" height="25" x="0" y="0" style="fill: rgb(253, 188, 112); opacity: 0.8;"></rect></g><g transform="translate(700,525)"></g><g transform="translate(600,475)"></g><g transform="translate(725,600)"><rect width="25" height="25" x="0" y="0" style="fill: rgb(252, 175, 102); opacity: 0.8;"></rect></g><g transform="translate(475,575)"></g><g transform="translate(725,625)"><rect width="25" height="25" x="0" y="0" style="fill: rgb(254, 231, 157); opacity: 0.8;"></rect></g><g transform="translate(575,725)"></g><g transform="translate(625,475)"></g><g transform="translate(475,625)"><rect width="25" height="25" x="0" y="0" style="fill: rgb(254, 224, 147); opacity: 0.8;"></rect></g><g transform="translate(575,475)"></g><g transform="translate(725,575)"></g><g transform="translate(625,725)"></g><g transform="translate(550,475)"><rect width="25" height="25" x="0" y="0" style="fill: rgb(243, 118, 71); opacity: 0.8;"></rect></g><g transform="translate(475,550)"><rect width="25" height="25" x="0" y="0" style="fill: rgb(240, 108, 66); opacity: 0.8;"></rect></g><g transform="translate(725,550)"></g><g transform="translate(475,650)"></g><g transform="translate(725,650)"></g><g transform="translate(650,725)"></g><g transform="translate(650,475)"></g><g transform="translate(550,725)"><rect width="25" height="25" x="0" y="0" style="fill: rgb(251, 168, 98); opacity: 0.8;"></rect></g><g transform="translate(500,500)"><rect width="25" height="25" x="0" y="0" style="fill: rgb(248, 145, 84); opacity: 0.8;"></rect></g><g transform="translate(700,500)"></g><g transform="translate(500,700)"><rect width="25" height="25" x="0" y="0" style="fill: rgb(248, 142, 83); opacity: 0.8;"></rect></g><g transform="translate(700,700)"></g><g transform="translate(475,525)"></g><g transform="translate(525,475)"></g><g transform="translate(475,675)"></g><g transform="translate(725,675)"></g><g transform="translate(675,475)"></g><g transform="translate(725,525)"><rect width="25" height="25" x="0" y="0" style="fill: rgb(239, 104, 65); opacity: 0.8;"></rect></g><g transform="translate(525,725)"></g><g transform="translate(675,725)"></g><g transform="translate(600,750)"></g><g transform="translate(450,600)"></g><g transform="translate(600,450)"></g><g transform="translate(750,600)"></g><g transform="translate(575,750)"></g><g transform="translate(450,625)"></g><g transform="translate(750,575)"></g><g transform="translate(625,450)"></g><g transform="translate(450,575)"></g><g transform="translate(625,750)"></g><g transform="translate(575,450)"><rect width="25" height="25" x="0" y="0" style="fill: rgb(254, 203, 125); opacity: 0.8;"></rect></g><g transform="translate(750,625)"></g><g transform="translate(550,750)"></g><g transform="translate(750,550)"><rect width="25" height="25" x="0" y="0" style="fill: rgb(241, 109, 67); opacity: 0.8;"></rect></g><g transform="translate(450,550)"></g><g transform="translate(550,450)"></g><g transform="translate(650,450)"><rect width="25" height="25" x="0" y="0" style="fill: rgb(253, 191, 114); opacity: 0.8;"></rect></g><g transform="translate(650,750)"></g><g transform="translate(750,650)"></g><g transform="translate(450,650)"></g><g transform="translate(475,700)"></g><g transform="translate(700,475)"><rect width="25" height="25" x="0" y="0" style="fill: rgb(228, 78, 53); opacity: 0.8;"></rect></g><g transform="translate(500,475)"></g><g transform="translate(475,500)"></g><g transform="translate(725,500)"></g><g transform="translate(700,725)"></g><g transform="translate(725,700)"></g><g transform="translate(500,725)"></g><g transform="translate(750,525)"></g><g transform="translate(750,675)"></g><g transform="translate(450,525)"></g><g transform="translate(525,450)"></g><g transform="translate(675,450)"></g><g transform="translate(450,675)"></g><g transform="translate(675,750)"><rect width="25" height="25" x="0" y="0" style="fill: rgb(253, 200, 122); opacity: 0.8;"></rect></g><g transform="translate(525,750)"></g><g transform="translate(775,600)"></g><g transform="translate(600,775)"></g><g transform="translate(425,600)"><rect width="25" height="25" x="0" y="0" style="fill: rgb(252, 171, 99); opacity: 0.8;"></rect></g><g transform="translate(600,425)"></g><g transform="translate(475,725)"></g><g transform="translate(725,475)"></g><g transform="translate(625,775)"></g><g transform="translate(725,725)"></g><g transform="translate(475,475)"></g><g transform="translate(425,575)"></g><g transform="translate(775,575)"></g><g transform="translate(425,625)"><rect width="25" height="25" x="0" y="0" style="fill: rgb(244, 122, 73); opacity: 0.8;"></rect></g><g transform="translate(625,425)"></g><g transform="translate(775,625)"><rect width="25" height="25" x="0" y="0" style="fill: rgb(247, 135, 79); opacity: 0.8;"></rect></g><g transform="translate(575,775)"></g><g transform="translate(575,425)"></g><g transform="translate(500,450)"></g><g transform="translate(450,700)"></g><g transform="translate(700,450)"></g><g transform="translate(750,500)"></g><g transform="translate(750,700)"></g><g transform="translate(500,750)"></g><g transform="translate(450,500)"></g><g transform="translate(700,750)"></g><g transform="translate(775,650)"></g><g transform="translate(425,550)"></g><g transform="translate(650,425)"></g><g transform="translate(550,775)"><rect width="25" height="25" x="0" y="0" style="fill: rgb(254, 222, 145); opacity: 0.8;"></rect></g><g transform="translate(775,550)"></g><g transform="translate(425,650)"></g><g transform="translate(650,775)"></g><g transform="translate(550,425)"></g><g transform="translate(675,775)"></g><g transform="translate(425,525)"><rect width="25" height="25" x="0" y="0" style="fill: rgb(238, 102, 64); opacity: 0.8;"></rect></g><g transform="translate(675,425)"></g><g transform="translate(425,675)"></g><g transform="translate(525,775)"></g><g transform="translate(525,425)"></g><g transform="translate(775,525)"></g><g transform="translate(775,675)"></g><g transform="translate(725,750)"></g><g transform="translate(450,725)"></g><g transform="translate(750,725)"></g><g transform="translate(725,450)"></g><g transform="translate(475,450)"></g><g transform="translate(450,475)"></g><g transform="translate(750,475)"></g><g transform="translate(475,750)"></g><g transform="translate(600,400)"></g><g transform="translate(600,800)"></g><g transform="translate(400,600)"><rect width="25" height="25" x="0" y="0" style="fill: rgb(246, 132, 78); opacity: 0.8;"></rect></g><g transform="translate(800,600)"></g><g transform="translate(625,800)"></g><g transform="translate(700,425)"></g><g transform="translate(425,700)"></g><g transform="translate(700,775)"></g><g transform="translate(400,625)"></g><g transform="translate(775,700)"></g><g transform="translate(500,425)"></g><g transform="translate(800,575)"></g><g transform="translate(425,500)"></g><g transform="translate(775,500)"></g><g transform="translate(500,775)"><rect width="25" height="25" x="0" y="0" style="fill: rgb(253, 191, 115); opacity: 0.8;"></rect></g><g transform="translate(625,400)"></g><g transform="translate(575,800)"></g><g transform="translate(800,625)"></g><g transform="translate(400,575)"></g><g transform="translate(575,400)"></g><g transform="translate(800,550)"></g><g transform="translate(800,650)"></g><g transform="translate(400,550)"></g><g transform="translate(400,650)"></g><g transform="translate(550,400)"><rect width="25" height="25" x="0" y="0" style="fill: rgb(250, 153, 89); opacity: 0.8;"></rect></g><g transform="translate(650,400)"></g><g transform="translate(550,800)"></g><g transform="translate(650,800)"></g><g transform="translate(450,750)"></g><g transform="translate(450,450)"></g><g transform="translate(750,750)"></g><g transform="translate(750,450)"></g><g transform="translate(525,800)"></g><g transform="translate(675,800)"></g><g transform="translate(400,675)"></g><g transform="translate(800,675)"><rect width="25" height="25" x="0" y="0" style="fill: rgb(217, 58, 46); opacity: 0.8;"></rect></g><g transform="translate(525,400)"></g><g transform="translate(675,400)"></g><g transform="translate(400,525)"></g><g transform="translate(800,525)"></g><g transform="translate(475,425)"></g><g transform="translate(475,775)"></g><g transform="translate(425,725)"></g><g transform="translate(775,475)"></g><g transform="translate(775,725)"><rect width="25" height="25" x="0" y="0" style="fill: rgb(235, 92, 59); opacity: 0.8;"></rect></g><g transform="translate(725,425)"></g><g transform="translate(425,475)"></g><g transform="translate(725,775)"></g><g transform="translate(400,500)"></g><g transform="translate(500,400)"></g><g transform="translate(400,700)"></g><g transform="translate(800,500)"></g><g transform="translate(700,800)"></g><g transform="translate(500,800)"></g><g transform="translate(800,700)"></g><g transform="translate(700,400)"></g><g transform="translate(825,600)"></g><g transform="translate(600,375)"><rect width="25" height="25" x="0" y="0" style="fill: rgb(252, 174, 101); opacity: 0.8;"></rect></g><g transform="translate(375,600)"></g><g transform="translate(600,825)"></g><g transform="translate(375,575)"></g><g transform="translate(625,375)"></g><g transform="translate(625,825)"></g><g transform="translate(825,625)"></g><g transform="translate(825,575)"></g><g transform="translate(575,825)"></g><g transform="translate(375,625)"></g><g transform="translate(575,375)"></g><g transform="translate(550,375)"></g><g transform="translate(650,375)"></g><g transform="translate(375,550)"></g><g transform="translate(450,775)"></g><g transform="translate(375,650)"></g><g transform="translate(550,825)"></g><g transform="translate(750,775)"></g><g transform="translate(650,825)"></g><g transform="translate(825,550)"></g><g transform="translate(775,450)"></g><g transform="translate(825,650)"></g><g transform="translate(450,425)"></g><g transform="translate(425,750)"></g><g transform="translate(775,750)"></g><g transform="translate(750,425)"></g><g transform="translate(425,450)"><rect width="25" height="25" x="0" y="0" style="fill: rgb(217, 58, 46); opacity: 0.8;"></rect></g><g transform="translate(400,475)"></g><g transform="translate(800,725)"></g><g transform="translate(475,800)"></g><g transform="translate(400,725)"></g><g transform="translate(725,800)"></g><g transform="translate(800,475)"></g><g transform="translate(725,400)"></g><g transform="translate(475,400)"></g><g transform="translate(825,675)"></g><g transform="translate(375,525)"></g><g transform="translate(675,375)"></g><g transform="translate(675,825)"></g><g transform="translate(825,525)"></g><g transform="translate(375,675)"></g><g transform="translate(525,375)"></g><g transform="translate(525,825)"></g><g transform="translate(825,500)"></g><g transform="translate(700,375)"></g><g transform="translate(500,825)"></g><g transform="translate(375,500)"></g><g transform="translate(500,375)"></g><g transform="translate(825,700)"></g><g transform="translate(700,825)"></g><g transform="translate(375,700)"><rect width="25" height="25" x="0" y="0" style="fill: rgb(253, 201, 123); opacity: 0.8;"></rect></g><g transform="translate(775,775)"></g><g transform="translate(425,425)"></g><g transform="translate(425,775)"></g><g transform="translate(775,425)"></g><g transform="translate(800,450)"></g><g transform="translate(400,750)"></g><g transform="translate(600,850)"></g><g transform="translate(400,450)"></g><g transform="translate(450,400)"></g><g transform="translate(800,750)"></g><g transform="translate(750,400)"></g><g transform="translate(850,600)"></g><g transform="translate(600,350)"></g><g transform="translate(450,800)"></g><g transform="translate(350,600)"></g><g transform="translate(750,800)"></g><g transform="translate(350,625)"></g><g transform="translate(350,575)"></g><g transform="translate(575,350)"></g><g transform="translate(625,850)"></g><g transform="translate(850,575)"></g><g transform="translate(850,625)"></g><g transform="translate(575,850)"></g><g transform="translate(625,350)"></g><g transform="translate(650,850)"></g><g transform="translate(550,350)"></g><g transform="translate(850,550)"></g><g transform="translate(850,650)"></g><g transform="translate(350,650)"></g><g transform="translate(350,550)"></g><g transform="translate(650,350)"></g><g transform="translate(550,850)"></g><g transform="translate(375,725)"></g><g transform="translate(725,825)"></g><g transform="translate(475,375)"></g><g transform="translate(725,375)"></g><g transform="translate(475,825)"></g><g transform="translate(375,475)"></g><g transform="translate(825,725)"></g><g transform="translate(825,475)"></g><g transform="translate(675,850)"></g><g transform="translate(525,350)"></g><g transform="translate(350,675)"><rect width="25" height="25" x="0" y="0" style="fill: rgb(253, 186, 111); opacity: 0.8;"></rect></g><g transform="translate(675,350)"></g><g transform="translate(850,675)"></g><g transform="translate(850,525)"></g><g transform="translate(350,525)"></g><g transform="translate(525,850)"></g><g transform="translate(775,800)"></g><g transform="translate(800,425)"><rect width="25" height="25" x="0" y="0" style="fill: rgb(247, 134, 79); opacity: 0.8;"></rect></g><g transform="translate(425,800)"></g><g transform="translate(775,400)"></g><g transform="translate(400,425)"></g><g transform="translate(425,400)"></g><g transform="translate(400,775)"></g><g transform="translate(800,775)"></g><g transform="translate(500,850)"><rect width="25" height="25" x="0" y="0" style="fill: rgb(254, 225, 149); opacity: 0.8;"></rect></g><g transform="translate(700,350)"></g><g transform="translate(700,850)"></g><g transform="translate(850,500)"></g><g transform="translate(850,700)"></g><g transform="translate(350,500)"></g><g transform="translate(500,350)"></g><g transform="translate(350,700)"></g><g transform="translate(375,750)"></g><g transform="translate(450,375)"></g><g transform="translate(750,375)"></g><g transform="translate(825,450)"></g><g transform="translate(450,825)"></g><g transform="translate(750,825)"></g><g transform="translate(825,750)"></g><g transform="translate(375,450)"></g><g transform="translate(600,325)"></g><g transform="translate(600,875)"></g><g transform="translate(325,600)"></g><g transform="translate(875,600)"></g><g transform="translate(875,625)"></g><g transform="translate(325,575)"></g><g transform="translate(575,875)"></g><g transform="translate(325,625)"></g><g transform="translate(625,875)"></g><g transform="translate(575,325)"></g><g transform="translate(875,575)"></g><g transform="translate(625,325)"></g><g transform="translate(350,475)"></g><g transform="translate(550,875)"></g><g transform="translate(850,725)"></g><g transform="translate(550,325)"></g><g transform="translate(650,325)"></g><g transform="translate(475,850)"></g><g transform="translate(850,475)"></g><g transform="translate(350,725)"></g><g transform="translate(325,550)"></g><g transform="translate(875,550)"></g><g transform="translate(725,350)"><rect width="25" height="25" x="0" y="0" style="fill: rgb(251, 163, 95); opacity: 0.8;"></rect></g><g transform="translate(475,350)"></g><g transform="translate(650,875)"></g><g transform="translate(725,850)"></g><g transform="translate(325,650)"></g><g transform="translate(875,650)"></g><g transform="translate(800,400)"></g><g transform="translate(400,800)"></g><g transform="translate(800,800)"></g><g transform="translate(400,400)"></g><g transform="translate(675,875)"></g><g transform="translate(675,325)"></g><g transform="translate(825,775)"></g><g transform="translate(775,375)"></g><g transform="translate(875,675)"></g><g transform="translate(325,525)"></g><g transform="translate(875,525)"></g><g transform="translate(525,325)"></g><g transform="translate(425,825)"></g><g transform="translate(375,775)"></g><g transform="translate(825,425)"></g><g transform="translate(425,375)"></g><g transform="translate(525,875)"></g><g transform="translate(775,825)"></g><g transform="translate(325,675)"></g><g transform="translate(375,425)"></g><g transform="translate(750,850)"></g><g transform="translate(850,750)"></g><g transform="translate(450,850)"></g><g transform="translate(450,350)"></g><g transform="translate(850,450)"></g><g transform="translate(350,750)"></g><g transform="translate(750,350)"></g><g transform="translate(350,450)"></g><g transform="translate(700,325)"></g><g transform="translate(875,500)"></g><g transform="translate(325,700)"></g><g transform="translate(500,325)"></g><g transform="translate(875,700)"></g><g transform="translate(700,875)"></g><g transform="translate(500,875)"></g><g transform="translate(325,500)"></g><g transform="translate(600,300)"></g><g transform="translate(900,600)"></g><g transform="translate(300,600)"></g><g transform="translate(600,900)"></g><g transform="translate(300,575)"></g><g transform="translate(625,900)"></g><g transform="translate(375,800)"></g><g transform="translate(825,800)"></g><g transform="translate(900,575)"></g><g transform="translate(575,300)"></g><g transform="translate(900,625)"></g><g transform="translate(575,900)"></g><g transform="translate(400,375)"></g><g transform="translate(400,825)"></g><g transform="translate(300,625)"><rect width="25" height="25" x="0" y="0" style="fill: rgb(252, 172, 100); opacity: 0.8;"></rect></g><g transform="translate(375,400)"></g><g transform="translate(800,825)"></g><g transform="translate(625,300)"></g><g transform="translate(800,375)"></g><g transform="translate(825,400)"></g><g transform="translate(475,875)"></g><g transform="translate(325,725)"></g><g transform="translate(875,475)"></g><g transform="translate(475,325)"></g><g transform="translate(725,325)"></g><g transform="translate(325,475)"></g><g transform="translate(875,725)"></g><g transform="translate(725,875)"></g><g transform="translate(650,300)"></g><g transform="translate(900,650)"></g><g transform="translate(650,900)"></g><g transform="translate(300,550)"></g><g transform="translate(550,300)"></g><g transform="translate(300,650)"></g><g transform="translate(900,550)"></g><g transform="translate(550,900)"></g><g transform="translate(850,775)"></g><g transform="translate(425,350)"></g><g transform="translate(425,850)"></g><g transform="translate(775,850)"></g><g transform="translate(775,350)"></g><g transform="translate(350,425)"></g><g transform="translate(850,425)"></g><g transform="translate(350,775)"></g><g transform="translate(525,300)"></g><g transform="translate(525,900)"></g><g transform="translate(675,900)"></g><g transform="translate(900,525)"></g><g transform="translate(675,300)"></g><g transform="translate(300,675)"></g><g transform="translate(300,525)"></g><g transform="translate(900,675)"></g><g transform="translate(325,450)"></g><g transform="translate(325,750)"></g><g transform="translate(450,875)"></g><g transform="translate(875,450)"></g><g transform="translate(450,325)"></g><g transform="translate(750,325)"></g><g transform="translate(875,750)"></g><g transform="translate(750,875)"></g><g transform="translate(300,700)"></g><g transform="translate(500,900)"></g><g transform="translate(900,700)"></g><g transform="translate(300,500)"></g><g transform="translate(500,300)"></g><g transform="translate(900,500)"></g><g transform="translate(700,300)"></g><g transform="translate(700,900)"></g><g transform="translate(375,375)"></g><g transform="translate(825,825)"></g><g transform="translate(375,825)"></g><g transform="translate(825,375)"></g><g transform="translate(350,800)"></g><g transform="translate(400,350)"></g><g transform="translate(800,350)"></g><g transform="translate(400,850)"></g><g transform="translate(350,400)"></g><g transform="translate(800,850)"></g><g transform="translate(850,400)"></g><g transform="translate(850,800)"></g><g transform="translate(300,475)"></g><g transform="translate(475,900)"></g><g transform="translate(900,725)"></g><g transform="translate(925,600)"></g><g transform="translate(600,275)"></g><g transform="translate(475,300)"></g><g transform="translate(600,925)"></g><g transform="translate(900,475)"></g><g transform="translate(725,900)"></g><g transform="translate(725,300)"></g><g transform="translate(300,725)"></g><g transform="translate(275,600)"></g><g transform="translate(875,775)"></g><g transform="translate(275,575)"></g><g transform="translate(625,925)"></g><g transform="translate(925,625)"></g><g transform="translate(575,925)"></g><g transform="translate(775,875)"></g><g transform="translate(425,325)"></g><g transform="translate(325,425)"></g><g transform="translate(425,875)"></g><g transform="translate(775,325)"></g><g transform="translate(875,425)"></g><g transform="translate(275,625)"></g><g transform="translate(625,275)"></g><g transform="translate(925,575)"></g><g transform="translate(325,775)"></g><g transform="translate(575,275)"></g><g transform="translate(275,650)"></g><g transform="translate(275,550)"></g><g transform="translate(550,275)"></g><g transform="translate(925,650)"></g><g transform="translate(925,550)"></g><g transform="translate(550,925)"></g><g transform="translate(650,925)"></g><g transform="translate(650,275)"></g><g transform="translate(275,525)"></g><g transform="translate(925,675)"></g><g transform="translate(525,925)"></g><g transform="translate(925,525)"></g><g transform="translate(675,925)"></g><g transform="translate(675,275)"></g><g transform="translate(275,675)"></g><g transform="translate(525,275)"></g><g transform="translate(450,900)"></g><g transform="translate(750,900)"></g><g transform="translate(300,450)"></g><g transform="translate(300,750)"></g><g transform="translate(900,450)"></g><g transform="translate(450,300)"></g><g transform="translate(900,750)"></g><g transform="translate(750,300)"></g><g transform="translate(825,350)"></g><g transform="translate(850,825)"></g><g transform="translate(350,825)"></g><g transform="translate(350,375)"></g><g transform="translate(850,375)"></g><g transform="translate(375,850)"></g><g transform="translate(825,850)"></g><g transform="translate(375,350)"></g><g transform="translate(925,500)"></g><g transform="translate(700,275)"></g><g transform="translate(875,400)"></g><g transform="translate(925,700)"></g><g transform="translate(325,400)"></g><g transform="translate(275,700)"></g><g transform="translate(800,325)"></g><g transform="translate(500,925)"></g><g transform="translate(800,875)"></g><g transform="translate(275,500)"></g><g transform="translate(325,800)"></g><g transform="translate(400,875)"></g><g transform="translate(400,325)"></g><g transform="translate(700,925)"></g><g transform="translate(500,275)"></g><g transform="translate(875,800)"></g><g transform="translate(900,775)"></g><g transform="translate(775,900)"></g><g transform="translate(300,425)"></g><g transform="translate(900,425)"></g><g transform="translate(775,300)"></g><g transform="translate(425,300)"></g><g transform="translate(300,775)"></g><g transform="translate(425,900)"></g><g transform="translate(475,925)"></g><g transform="translate(925,475)"></g><g transform="translate(925,725)"></g><g transform="translate(475,275)"></g><g transform="translate(725,275)"></g><g transform="translate(275,725)"></g><g transform="translate(725,925)"></g><g transform="translate(275,475)"></g><g transform="translate(600,950)"></g><g transform="translate(950,600)"></g><g transform="translate(600,250)"></g><g transform="translate(250,600)"></g><g transform="translate(250,575)"></g><g transform="translate(575,950)"></g><g transform="translate(950,625)"></g><g transform="translate(625,950)"></g><g transform="translate(575,250)"></g><g transform="translate(625,250)"></g><g transform="translate(250,625)"></g><g transform="translate(950,575)"></g><g transform="translate(950,550)"></g><g transform="translate(250,650)"></g><g transform="translate(850,350)"></g><g transform="translate(650,950)"></g><g transform="translate(350,850)"></g><g transform="translate(550,250)"></g><g transform="translate(250,550)"></g><g transform="translate(950,650)"></g><g transform="translate(850,850)"></g><g transform="translate(650,250)"></g><g transform="translate(550,950)"></g><g transform="translate(350,350)"></g><g transform="translate(325,825)"></g><g transform="translate(375,875)"></g><g transform="translate(875,825)"></g><g transform="translate(875,375)"></g><g transform="translate(375,325)"></g><g transform="translate(825,875)"></g><g transform="translate(325,375)"></g><g transform="translate(825,325)"></g><g transform="translate(950,525)"></g><g transform="translate(675,950)"></g><g transform="translate(750,275)"></g><g transform="translate(750,925)"></g><g transform="translate(450,925)"></g><g transform="translate(925,750)"></g><g transform="translate(450,275)"></g><g transform="translate(275,750)"></g><g transform="translate(675,250)"></g><g transform="translate(275,450)"></g><g transform="translate(250,525)"></g><g transform="translate(250,675)"></g><g transform="translate(525,950)"></g><g transform="translate(525,250)"></g><g transform="translate(925,450)"></g><g transform="translate(950,675)"></g><g transform="translate(400,300)"></g><g transform="translate(300,400)"></g><g transform="translate(800,300)"></g><g transform="translate(900,800)"></g><g transform="translate(900,400)"></g><g transform="translate(800,900)"></g><g transform="translate(400,900)"></g><g transform="translate(300,800)"></g><g transform="translate(500,250)"></g><g transform="translate(950,700)"></g><g transform="translate(250,500)"></g><g transform="translate(700,250)"></g><g transform="translate(500,950)"></g><g transform="translate(700,950)"></g><g transform="translate(250,700)"></g><g transform="translate(950,500)"></g><g transform="translate(275,425)"></g><g transform="translate(425,275)"></g><g transform="translate(775,925)"></g><g transform="translate(775,275)"></g><g transform="translate(425,925)"></g><g transform="translate(925,775)"></g><g transform="translate(925,425)"></g><g transform="translate(275,775)"></g><g transform="translate(875,850)"></g><g transform="translate(250,475)"></g><g transform="translate(875,350)"></g><g transform="translate(325,850)"></g><g transform="translate(725,250)"></g><g transform="translate(950,475)"></g><g transform="translate(850,325)"></g><g transform="translate(350,325)"></g><g transform="translate(950,725)"></g><g transform="translate(250,725)"></g><g transform="translate(850,875)"></g><g transform="translate(475,250)"></g><g transform="translate(475,950)"></g><g transform="translate(350,875)"></g><g transform="translate(325,350)"></g><g transform="translate(725,950)"></g><g transform="translate(300,825)"></g><g transform="translate(900,375)"></g><g transform="translate(900,825)"></g><g transform="translate(300,375)"></g><g transform="translate(600,225)"></g><g transform="translate(600,975)"></g><g transform="translate(825,300)"></g><g transform="translate(825,900)"></g><g transform="translate(375,900)"></g><g transform="translate(375,300)"></g><g transform="translate(975,600)"></g><g transform="translate(225,600)"></g><g transform="translate(225,625)"></g><g transform="translate(625,975)"></g><g transform="translate(975,625)"></g><g transform="translate(575,225)"></g><g transform="translate(975,575)"></g><g transform="translate(575,975)"></g><g transform="translate(225,575)"></g><g transform="translate(625,225)"></g><g transform="translate(225,650)"></g><g transform="translate(650,225)"></g><g transform="translate(550,975)"></g><g transform="translate(975,550)"></g><g transform="translate(975,650)"></g><g transform="translate(225,550)"></g><g transform="translate(550,225)"></g><g transform="translate(650,975)"></g><g transform="translate(250,450)"></g><g transform="translate(450,950)"></g><g transform="translate(750,950)"></g><g transform="translate(950,750)"></g><g transform="translate(250,750)"></g><g transform="translate(750,250)"></g><g transform="translate(950,450)"></g><g transform="translate(450,250)"></g><g transform="translate(925,400)"></g><g transform="translate(275,800)"></g><g transform="translate(400,275)"></g><g transform="translate(925,800)"></g><g transform="translate(800,925)"></g><g transform="translate(800,275)"></g><g transform="translate(400,925)"></g><g transform="translate(275,400)"></g><g transform="translate(675,225)"></g><g transform="translate(675,975)"></g><g transform="translate(525,225)"></g><g transform="translate(225,525)"></g><g transform="translate(975,675)"></g><g transform="translate(975,525)"></g><g transform="translate(525,975)"></g><g transform="translate(225,675)"></g><g transform="translate(225,700)"></g><g transform="translate(975,700)"></g><g transform="translate(500,975)"></g><g transform="translate(700,225)"></g><g transform="translate(225,500)"></g><g transform="translate(700,975)"></g><g transform="translate(975,500)"></g><g transform="translate(500,225)"></g><g transform="translate(325,875)"></g><g transform="translate(325,325)"></g><g transform="translate(875,875)"></g><g transform="translate(875,325)"></g><g transform="translate(350,900)"></g><g transform="translate(300,350)"></g><g transform="translate(850,900)"></g><g transform="translate(900,350)"></g><g transform="translate(900,850)"></g><g transform="translate(850,300)"></g><g transform="translate(350,300)"></g><g transform="translate(300,850)"></g><g transform="translate(425,250)"></g><g transform="translate(775,250)"></g><g transform="translate(250,775)"></g><g transform="translate(250,425)"></g><g transform="translate(775,950)"></g><g transform="translate(950,775)"></g><g transform="translate(950,425)"></g><g transform="translate(425,950)"></g><g transform="translate(925,375)"></g><g transform="translate(225,475)"></g><g transform="translate(475,225)"></g><g transform="translate(475,975)"></g><g transform="translate(925,825)"></g><g transform="translate(375,925)"></g><g transform="translate(975,475)"></g><g transform="translate(825,925)"></g><g transform="translate(975,725)"></g><g transform="translate(275,375)"></g><g transform="translate(725,975)"></g><g transform="translate(725,225)"></g><g transform="translate(825,275)"></g><g transform="translate(225,725)"></g><g transform="translate(275,825)"></g><g transform="translate(375,275)"></g><g transform="translate(600,200)"></g><g transform="translate(1000,600)"></g><g transform="translate(600,1000)"></g><g transform="translate(200,600)"></g><g transform="translate(575,1000)"></g><g transform="translate(575,200)"></g><g transform="translate(625,1000)"></g><g transform="translate(200,575)"></g><g transform="translate(200,625)"></g><g transform="translate(1000,575)"></g><g transform="translate(625,200)"></g><g transform="translate(1000,625)"></g><g transform="translate(550,200)"></g><g transform="translate(200,550)"></g><g transform="translate(250,800)"></g><g transform="translate(1000,550)"></g><g transform="translate(800,250)"></g><g transform="translate(1000,650)"></g><g transform="translate(650,200)"></g><g transform="translate(550,1000)"></g><g transform="translate(250,400)"></g><g transform="translate(950,800)"></g><g transform="translate(800,950)"></g><g transform="translate(950,400)"></g><g transform="translate(400,950)"></g><g transform="translate(200,650)"></g><g transform="translate(650,1000)"></g><g transform="translate(400,250)"></g><g transform="translate(750,975)"></g><g transform="translate(450,225)"></g><g transform="translate(225,450)"></g><g transform="translate(975,750)"></g><g transform="translate(975,450)"></g><g transform="translate(450,975)"></g><g transform="translate(225,750)"></g><g transform="translate(750,225)"></g><g transform="translate(325,300)"></g><g transform="translate(200,525)"></g><g transform="translate(300,875)"></g><g transform="translate(1000,675)"></g><g transform="translate(200,675)"></g><g transform="translate(675,200)"></g><g transform="translate(300,325)"></g><g transform="translate(675,1000)"></g><g transform="translate(525,1000)"></g><g transform="translate(325,900)"></g><g transform="translate(525,200)"></g><g transform="translate(1000,525)"></g><g transform="translate(875,300)"></g><g transform="translate(900,325)"></g><g transform="translate(875,900)"></g><g transform="translate(900,875)"></g><g transform="translate(925,850)"></g><g transform="translate(925,350)"></g><g transform="translate(275,350)"></g><g transform="translate(850,275)"></g><g transform="translate(850,925)"></g><g transform="translate(350,925)"></g><g transform="translate(275,850)"></g><g transform="translate(350,275)"></g><g transform="translate(200,700)"></g><g transform="translate(200,500)"></g><g transform="translate(700,1000)"></g><g transform="translate(1000,500)"></g><g transform="translate(1000,700)"></g><g transform="translate(700,200)"></g><g transform="translate(500,200)"></g><g transform="translate(500,1000)"></g><g transform="translate(425,225)"></g><g transform="translate(975,425)"></g><g transform="translate(425,975)"></g><g transform="translate(225,775)"></g><g transform="translate(775,975)"></g><g transform="translate(975,775)"></g><g transform="translate(775,225)"></g><g transform="translate(225,425)"></g><g transform="translate(375,250)"></g><g transform="translate(250,375)"></g><g transform="translate(950,375)"></g><g transform="translate(375,950)"></g><g transform="translate(825,950)"></g><g transform="translate(950,825)"></g><g transform="translate(250,825)"></g><g transform="translate(825,250)"></g><g transform="translate(725,1000)"></g><g transform="translate(200,475)"></g><g transform="translate(1000,725)"></g><g transform="translate(475,200)"></g><g transform="translate(200,725)"></g><g transform="translate(725,200)"></g><g transform="translate(1000,475)"></g><g transform="translate(475,1000)"></g><g transform="translate(900,300)"></g><g transform="translate(900,900)"></g><g transform="translate(300,900)"></g><g transform="translate(300,300)"></g><g transform="translate(600,1025)"></g><g transform="translate(400,225)"></g><g transform="translate(975,400)"></g><g transform="translate(400,975)"></g><g transform="translate(175,600)"></g><g transform="translate(1025,600)"></g><g transform="translate(600,175)"></g><g transform="translate(975,800)"></g><g transform="translate(800,225)"></g><g transform="translate(800,975)"></g><g transform="translate(225,400)"></g><g transform="translate(225,800)"></g><g transform="translate(275,325)"></g><g transform="translate(275,875)"></g><g transform="translate(175,625)"></g><g transform="translate(575,175)"></g><g transform="translate(925,325)"></g><g transform="translate(325,275)"></g><g transform="translate(625,1025)"></g><g transform="translate(625,175)"></g><g transform="translate(325,925)"></g><g transform="translate(875,275)"></g><g transform="translate(875,925)"></g><g transform="translate(575,1025)"></g><g transform="translate(175,575)"></g><g transform="translate(925,875)"></g><g transform="translate(1025,625)"></g><g transform="translate(1025,575)"></g><g transform="translate(450,1000)"></g><g transform="translate(200,450)"></g><g transform="translate(750,200)"></g><g transform="translate(450,200)"></g><g transform="translate(750,1000)"></g><g transform="translate(1000,750)"></g><g transform="translate(200,750)"></g><g transform="translate(1000,450)"></g><g transform="translate(1025,650)"></g><g transform="translate(550,175)"></g><g transform="translate(650,175)"></g><g transform="translate(175,550)"></g><g transform="translate(1025,550)"></g><g transform="translate(650,1025)"></g><g transform="translate(175,650)"></g><g transform="translate(550,1025)"></g><g transform="translate(350,250)"></g><g transform="translate(850,250)"></g><g transform="translate(350,950)"></g><g transform="translate(250,350)"></g><g transform="translate(850,950)"></g><g transform="translate(950,350)"></g><g transform="translate(250,850)"></g><g transform="translate(950,850)"></g><g transform="translate(175,525)"></g><g transform="translate(525,1025)"></g><g transform="translate(1025,525)"></g><g transform="translate(675,1025)"></g><g transform="translate(525,175)"></g><g transform="translate(1025,675)"></g><g transform="translate(175,675)"></g><g transform="translate(675,175)"></g><g transform="translate(425,200)"></g><g transform="translate(500,175)"></g><g transform="translate(1000,425)"></g><g transform="translate(200,775)"></g><g transform="translate(1000,775)"></g><g transform="translate(425,1000)"></g><g transform="translate(500,1025)"></g><g transform="translate(1025,500)"></g><g transform="translate(175,700)"></g><g transform="translate(1025,700)"></g><g transform="translate(200,425)"></g><g transform="translate(700,175)"></g><g transform="translate(700,1025)"></g><g transform="translate(775,1000)"></g><g transform="translate(175,500)"></g><g transform="translate(775,200)"></g><g transform="translate(825,225)"></g><g transform="translate(375,225)"></g><g transform="translate(225,825)"></g><g transform="translate(375,975)"></g><g transform="translate(825,975)"></g><g transform="translate(225,375)"></g><g transform="translate(975,375)"></g><g transform="translate(975,825)"></g><g transform="translate(900,275)"></g><g transform="translate(925,900)"></g><g transform="translate(275,900)"></g><g transform="translate(925,300)"></g><g transform="translate(275,300)"></g><g transform="translate(300,925)"></g><g transform="translate(900,925)"></g><g transform="translate(300,275)"></g><g transform="translate(1025,475)"></g><g transform="translate(725,1025)"></g><g transform="translate(475,1025)"></g><g transform="translate(175,475)"></g><g transform="translate(175,725)"></g><g transform="translate(1025,725)"></g><g transform="translate(725,175)"></g><g transform="translate(475,175)"></g><g transform="translate(325,950)"></g><g transform="translate(950,325)"></g><g transform="translate(875,950)"></g><g transform="translate(250,875)"></g><g transform="translate(250,325)"></g><g transform="translate(950,875)"></g><g transform="translate(325,250)"></g><g transform="translate(875,250)"></g><g transform="translate(1000,800)"></g><g transform="translate(400,200)"></g><g transform="translate(200,800)"></g><g transform="translate(1000,400)"></g><g transform="translate(200,400)"></g><g transform="translate(400,1000)"></g><g transform="translate(800,1000)"></g><g transform="translate(800,200)"></g><g transform="translate(1050,600)"></g><g transform="translate(600,150)"></g><g transform="translate(600,1050)"></g><g transform="translate(150,600)"></g><g transform="translate(850,975)"></g><g transform="translate(175,750)"></g><g transform="translate(450,1025)"></g><g transform="translate(350,975)"></g><g transform="translate(1050,575)"></g><g transform="translate(850,225)"></g><g transform="translate(575,1050)"></g><g transform="translate(1025,750)"></g><g transform="translate(1025,450)"></g><g transform="translate(225,850)"></g><g transform="translate(150,575)"></g><g transform="translate(975,850)"></g><g transform="translate(350,225)"></g><g transform="translate(150,625)"></g><g transform="translate(225,350)"></g><g transform="translate(575,150)"></g><g transform="translate(750,1025)"></g><g transform="translate(625,150)"></g><g transform="translate(975,350)"></g><g transform="translate(750,175)"></g><g transform="translate(175,450)"></g><g transform="translate(450,175)"></g><g transform="translate(625,1050)"></g><g transform="translate(1050,625)"></g><g transform="translate(150,550)"></g><g transform="translate(650,1050)"></g><g transform="translate(650,150)"></g><g transform="translate(550,150)"></g><g transform="translate(1050,550)"></g><g transform="translate(550,1050)"></g><g transform="translate(1050,650)"></g><g transform="translate(150,650)"></g><g transform="translate(1050,675)"></g><g transform="translate(150,675)"></g><g transform="translate(675,1050)"></g><g transform="translate(675,150)"></g><g transform="translate(525,150)"></g><g transform="translate(525,1050)"></g><g transform="translate(150,525)"></g><g transform="translate(1050,525)"></g><g transform="translate(1000,375)"></g><g transform="translate(200,825)"></g><g transform="translate(1000,825)"></g><g transform="translate(375,1000)"></g><g transform="translate(825,200)"></g><g transform="translate(825,1000)"></g><g transform="translate(200,375)"></g><g transform="translate(375,200)"></g><g transform="translate(1025,425)"></g><g transform="translate(1025,775)"></g><g transform="translate(425,175)"></g><g transform="translate(775,1025)"></g><g transform="translate(275,275)"></g><g transform="translate(275,925)"></g><g transform="translate(925,925)"></g><g transform="translate(775,175)"></g><g transform="translate(175,425)"></g><g transform="translate(175,775)"></g><g transform="translate(925,275)"></g><g transform="translate(425,1025)"></g><g transform="translate(300,250)"></g><g transform="translate(1050,700)"></g><g transform="translate(150,700)"></g><g transform="translate(500,150)"></g><g transform="translate(900,250)"></g><g transform="translate(700,1050)"></g><g transform="translate(1050,500)"></g><g transform="translate(950,300)"></g><g transform="translate(700,150)"></g><g transform="translate(300,950)"></g><g transform="translate(150,500)"></g><g transform="translate(950,900)"></g><g transform="translate(250,900)"></g><g transform="translate(500,1050)"></g><g transform="translate(250,300)"></g><g transform="translate(900,950)"></g><g transform="translate(225,875)"></g><g transform="translate(875,975)"></g><g transform="translate(975,875)"></g><g transform="translate(975,325)"></g><g transform="translate(325,225)"></g><g transform="translate(225,325)"></g><g transform="translate(325,975)"></g><g transform="translate(875,225)"></g><g transform="translate(475,1050)"></g><g transform="translate(150,725)"></g><g transform="translate(150,475)"></g><g transform="translate(1050,475)"></g><g transform="translate(725,1050)"></g><g transform="translate(725,150)"></g><g transform="translate(1050,725)"></g><g transform="translate(475,150)"></g><g transform="translate(800,175)"></g><g transform="translate(175,800)"></g><g transform="translate(1025,800)"></g><g transform="translate(1025,400)"></g><g transform="translate(800,1025)"></g><g transform="translate(400,175)"></g><g transform="translate(400,1025)"></g><g transform="translate(175,400)"></g><g transform="translate(1000,850)"></g><g transform="translate(850,1000)"></g><g transform="translate(350,1000)"></g><g transform="translate(1000,350)"></g><g transform="translate(200,350)"></g><g transform="translate(350,200)"></g><g transform="translate(850,200)"></g><g transform="translate(200,850)"></g><g transform="translate(750,150)"></g><g transform="translate(450,150)"></g><g transform="translate(1050,750)"></g><g transform="translate(1050,450)"></g><g transform="translate(150,750)"></g><g transform="translate(750,1050)"></g><g transform="translate(150,450)"></g><g transform="translate(450,1050)"></g><g transform="translate(600,125)"></g><g transform="translate(125,600)"></g><g transform="translate(1075,600)"></g><g transform="translate(600,1075)"></g><g transform="translate(125,625)"></g><g transform="translate(625,125)"></g><g transform="translate(575,125)"></g><g transform="translate(1075,575)"></g><g transform="translate(575,1075)"></g><g transform="translate(125,575)"></g><g transform="translate(625,1075)"></g><g transform="translate(1075,625)"></g><g transform="translate(950,925)"></g><g transform="translate(650,1075)"></g><g transform="translate(1075,550)"></g><g transform="translate(925,250)"></g><g transform="translate(1075,650)"></g><g transform="translate(125,650)"></g><g transform="translate(275,250)"></g><g transform="translate(550,1075)"></g><g transform="translate(650,125)"></g><g transform="translate(950,275)"></g><g transform="translate(250,275)"></g><g transform="translate(275,950)"></g><g transform="translate(925,950)"></g><g transform="translate(250,925)"></g><g transform="translate(125,550)"></g><g transform="translate(550,125)"></g><g transform="translate(900,225)"></g><g transform="translate(975,300)"></g><g transform="translate(900,975)"></g><g transform="translate(300,225)"></g><g transform="translate(300,975)"></g><g transform="translate(225,300)"></g><g transform="translate(225,900)"></g><g transform="translate(975,900)"></g><g transform="translate(375,1025)"></g><g transform="translate(1075,675)"></g><g transform="translate(1075,525)"></g><g transform="translate(825,175)"></g><g transform="translate(175,375)"></g><g transform="translate(125,525)"></g><g transform="translate(1025,375)"></g><g transform="translate(125,675)"></g><g transform="translate(1025,825)"></g><g transform="translate(675,1075)"></g><g transform="translate(175,825)"></g><g transform="translate(825,1025)"></g><g transform="translate(525,125)"></g><g transform="translate(675,125)"></g><g transform="translate(525,1075)"></g><g transform="translate(375,175)"></g><g transform="translate(150,775)"></g><g transform="translate(1050,775)"></g><g transform="translate(425,1050)"></g><g transform="translate(775,1050)"></g><g transform="translate(425,150)"></g><g transform="translate(775,150)"></g><g transform="translate(150,425)"></g><g transform="translate(1050,425)"></g><g transform="translate(875,1000)"></g><g transform="translate(700,125)"></g><g transform="translate(1075,700)"></g><g transform="translate(1075,500)"></g><g transform="translate(200,325)"></g><g transform="translate(875,200)"></g><g transform="translate(500,1075)"></g><g transform="translate(200,875)"></g><g transform="translate(125,700)"></g><g transform="translate(325,1000)"></g><g transform="translate(1000,325)"></g><g transform="translate(500,125)"></g><g transform="translate(1000,875)"></g><g transform="translate(325,200)"></g><g transform="translate(125,500)"></g><g transform="translate(700,1075)"></g><g transform="translate(125,475)"></g><g transform="translate(1075,475)"></g><g transform="translate(125,725)"></g><g transform="translate(475,125)"></g><g transform="translate(475,1075)"></g><g transform="translate(725,1075)"></g><g transform="translate(1075,725)"></g><g transform="translate(725,125)"></g><g transform="translate(800,1050)"></g><g transform="translate(150,800)"></g><g transform="translate(1050,800)"></g><g transform="translate(1050,400)"></g><g transform="translate(400,150)"></g><g transform="translate(150,400)"></g><g transform="translate(800,150)"></g><g transform="translate(400,1050)"></g><g transform="translate(350,1025)"></g><g transform="translate(1025,850)"></g><g transform="translate(1025,350)"></g><g transform="translate(850,1025)"></g><g transform="translate(175,350)"></g><g transform="translate(850,175)"></g><g transform="translate(175,850)"></g><g transform="translate(350,175)"></g><g transform="translate(250,250)"></g><g transform="translate(950,950)"></g><g transform="translate(250,950)"></g><g transform="translate(950,250)"></g><g transform="translate(275,975)"></g><g transform="translate(925,975)"></g><g transform="translate(975,275)"></g><g transform="translate(275,225)"></g><g transform="translate(225,925)"></g><g transform="translate(225,275)"></g><g transform="translate(975,925)"></g><g transform="translate(925,225)"></g><g transform="translate(450,1075)"></g><g transform="translate(450,125)"></g><g transform="translate(125,450)"></g><g transform="translate(750,1075)"></g><g transform="translate(750,125)"></g><g transform="translate(125,750)"></g><g transform="translate(1075,450)"></g><g transform="translate(1075,750)"></g><g transform="translate(900,1000)"></g><g transform="translate(1100,600)"></g><g transform="translate(100,600)"></g><g transform="translate(300,200)"></g><g transform="translate(200,900)"></g><g transform="translate(600,100)"></g><g transform="translate(1000,900)"></g><g transform="translate(600,1100)"></g><g transform="translate(300,1000)"></g><g transform="translate(1000,300)"></g><g transform="translate(200,300)"></g><g transform="translate(900,200)"></g><g transform="translate(100,625)"></g><g transform="translate(100,575)"></g><g transform="translate(1100,625)"></g><g transform="translate(625,1100)"></g><g transform="translate(575,1100)"></g><g transform="translate(1100,575)"></g><g transform="translate(575,100)"></g><g transform="translate(625,100)"></g><g transform="translate(100,650)"></g><g transform="translate(550,1100)"></g><g transform="translate(650,1100)"></g><g transform="translate(100,550)"></g><g transform="translate(550,100)"></g><g transform="translate(1100,650)"></g><g transform="translate(1100,550)"></g><g transform="translate(650,100)"></g><g transform="translate(150,375)"></g><g transform="translate(150,825)"></g><g transform="translate(825,1050)"></g><g transform="translate(1050,825)"></g><g transform="translate(375,150)"></g><g transform="translate(1050,375)"></g><g transform="translate(825,150)"></g><g transform="translate(375,1050)"></g><g transform="translate(100,525)"></g><g transform="translate(100,675)"></g><g transform="translate(675,1100)"></g><g transform="translate(1100,525)"></g><g transform="translate(1100,675)"></g><g transform="translate(675,100)"></g><g transform="translate(525,1100)"></g><g transform="translate(525,100)"></g><g transform="translate(325,175)"></g><g transform="translate(175,875)"></g><g transform="translate(1075,425)"></g><g transform="translate(125,425)"></g><g transform="translate(1075,775)"></g><g transform="translate(875,175)"></g><g transform="translate(325,1025)"></g><g transform="translate(775,1075)"></g><g transform="translate(1025,875)"></g><g transform="translate(775,125)"></g><g transform="translate(1025,325)"></g><g transform="translate(425,125)"></g><g transform="translate(875,1025)"></g><g transform="translate(125,775)"></g><g transform="translate(425,1075)"></g><g transform="translate(175,325)"></g><g transform="translate(500,100)"></g><g transform="translate(500,1100)"></g><g transform="translate(100,700)"></g><g transform="translate(700,100)"></g><g transform="translate(700,1100)"></g><g transform="translate(1100,500)"></g><g transform="translate(100,500)"></g><g transform="translate(1100,700)"></g><g transform="translate(225,250)"></g><g transform="translate(950,975)"></g><g transform="translate(950,225)"></g><g transform="translate(250,975)"></g><g transform="translate(250,225)"></g><g transform="translate(975,250)"></g><g transform="translate(225,950)"></g><g transform="translate(975,950)"></g><g transform="translate(850,150)"></g><g transform="translate(1050,850)"></g><g transform="translate(350,1050)"></g><g transform="translate(150,350)"></g><g transform="translate(150,850)"></g><g transform="translate(1050,350)"></g><g transform="translate(850,1050)"></g><g transform="translate(350,150)"></g><g transform="translate(125,400)"></g><g transform="translate(475,100)"></g><g transform="translate(100,475)"></g><g transform="translate(1000,275)"></g><g transform="translate(1075,400)"></g><g transform="translate(400,1075)"></g><g transform="translate(1100,725)"></g><g transform="translate(800,1075)"></g><g transform="translate(925,1000)"></g><g transform="translate(200,275)"></g><g transform="translate(1075,800)"></g><g transform="translate(275,200)"></g><g transform="translate(200,925)"></g><g transform="translate(725,100)"></g><g transform="translate(125,800)"></g><g transform="translate(725,1100)"></g><g transform="translate(475,1100)"></g><g transform="translate(925,200)"></g><g transform="translate(1100,475)"></g><g transform="translate(1000,925)"></g><g transform="translate(800,125)"></g><g transform="translate(400,125)"></g><g transform="translate(100,725)"></g><g transform="translate(275,1000)"></g><g transform="translate(300,175)"></g><g transform="translate(900,1025)"></g><g transform="translate(175,900)"></g><g transform="translate(1025,900)"></g><g transform="translate(300,1025)"></g><g transform="translate(900,175)"></g><g transform="translate(1025,300)"></g><g transform="translate(175,300)"></g><g transform="translate(750,100)"></g><g transform="translate(750,1100)"></g><g transform="translate(100,450)"></g><g transform="translate(450,100)"></g><g transform="translate(1100,450)"></g><g transform="translate(1100,750)"></g><g transform="translate(100,750)"></g><g transform="translate(450,1100)"></g><g transform="translate(75,600)"></g><g transform="translate(600,1125)"></g><g transform="translate(600,75)"></g><g transform="translate(1125,600)"></g><g transform="translate(125,825)"></g><g transform="translate(825,125)"></g><g transform="translate(625,1125)"></g><g transform="translate(375,125)"></g><g transform="translate(625,75)"></g><g transform="translate(1125,625)"></g><g transform="translate(125,375)"></g><g transform="translate(1075,825)"></g><g transform="translate(375,1075)"></g><g transform="translate(575,1125)"></g><g transform="translate(1075,375)"></g><g transform="translate(75,625)"></g><g transform="translate(575,75)"></g><g transform="translate(1125,575)"></g><g transform="translate(75,575)"></g><g transform="translate(825,1075)"></g><g transform="translate(1050,325)"></g><g transform="translate(150,875)"></g><g transform="translate(75,550)"></g><g transform="translate(650,1125)"></g><g transform="translate(550,75)"></g><g transform="translate(875,150)"></g><g transform="translate(1125,550)"></g><g transform="translate(650,75)"></g><g transform="translate(1050,875)"></g><g transform="translate(1125,650)"></g><g transform="translate(875,1050)"></g><g transform="translate(325,150)"></g><g transform="translate(550,1125)"></g><g transform="translate(75,650)"></g><g transform="translate(325,1050)"></g><g transform="translate(150,325)"></g><g transform="translate(1100,425)"></g><g transform="translate(100,775)"></g><g transform="translate(775,1100)"></g><g transform="translate(425,1100)"></g><g transform="translate(1100,775)"></g><g transform="translate(100,425)"></g><g transform="translate(425,100)"></g><g transform="translate(775,100)"></g><g transform="translate(975,975)"></g><g transform="translate(225,975)"></g><g transform="translate(525,1125)"></g><g transform="translate(1125,675)"></g><g transform="translate(75,525)"></g><g transform="translate(75,675)"></g><g transform="translate(225,225)"></g><g transform="translate(525,75)"></g><g transform="translate(1125,525)"></g><g transform="translate(675,1125)"></g><g transform="translate(675,75)"></g><g transform="translate(975,225)"></g><g transform="translate(1000,950)"></g><g transform="translate(250,200)"></g><g transform="translate(950,1000)"></g><g transform="translate(1000,250)"></g><g transform="translate(950,200)"></g><g transform="translate(250,1000)"></g><g transform="translate(200,950)"></g><g transform="translate(200,250)"></g><g transform="translate(500,75)"></g><g transform="translate(700,75)"></g><g transform="translate(1125,700)"></g><g transform="translate(500,1125)"></g><g transform="translate(700,1125)"></g><g transform="translate(75,700)"></g><g transform="translate(1125,500)"></g><g transform="translate(75,500)"></g><g transform="translate(1025,275)"></g><g transform="translate(275,1025)"></g><g transform="translate(175,275)"></g><g transform="translate(275,175)"></g><g transform="translate(175,925)"></g><g transform="translate(925,175)"></g><g transform="translate(925,1025)"></g><g transform="translate(1025,925)"></g><g transform="translate(850,1075)"></g><g transform="translate(125,350)"></g><g transform="translate(350,125)"></g><g transform="translate(350,1075)"></g><g transform="translate(1075,850)"></g><g transform="translate(1075,350)"></g><g transform="translate(850,125)"></g><g transform="translate(125,850)"></g><g transform="translate(800,100)"></g><g transform="translate(400,1100)"></g><g transform="translate(1100,800)"></g><g transform="translate(400,100)"></g><g transform="translate(100,800)"></g><g transform="translate(800,1100)"></g><g transform="translate(1100,400)"></g><g transform="translate(100,400)"></g><g transform="translate(1125,475)"></g><g transform="translate(475,75)"></g><g transform="translate(75,725)"></g><g transform="translate(1125,725)"></g><g transform="translate(725,1125)"></g><g transform="translate(75,475)"></g><g transform="translate(725,75)"></g><g transform="translate(475,1125)"></g><g transform="translate(300,1050)"></g><g transform="translate(300,150)"></g><g transform="translate(1050,900)"></g><g transform="translate(150,300)"></g><g transform="translate(900,150)"></g><g transform="translate(1050,300)"></g><g transform="translate(900,1050)"></g><g transform="translate(150,900)"></g><g transform="translate(750,75)"></g><g transform="translate(75,750)"></g><g transform="translate(450,1125)"></g><g transform="translate(750,1125)"></g><g transform="translate(450,75)"></g><g transform="translate(1125,450)"></g><g transform="translate(1125,750)"></g><g transform="translate(75,450)"></g><g transform="translate(200,225)"></g><g transform="translate(225,200)"></g><g transform="translate(100,375)"></g><g transform="translate(825,100)"></g><g transform="translate(1000,975)"></g><g transform="translate(975,200)"></g><g transform="translate(375,1100)"></g><g transform="translate(825,1100)"></g><g transform="translate(200,975)"></g><g transform="translate(975,1000)"></g><g transform="translate(100,825)"></g><g transform="translate(375,100)"></g><g transform="translate(1100,825)"></g><g transform="translate(1000,225)"></g><g transform="translate(225,1000)"></g><g transform="translate(1100,375)"></g><g transform="translate(1075,325)"></g><g transform="translate(125,875)"></g><g transform="translate(125,325)"></g><g transform="translate(1075,875)"></g><g transform="translate(325,125)"></g><g transform="translate(875,125)"></g><g transform="translate(875,1075)"></g><g transform="translate(325,1075)"></g><g transform="translate(1150,600)"></g><g transform="translate(50,600)"></g><g transform="translate(600,50)"></g><g transform="translate(600,1150)"></g><g transform="translate(575,50)"></g><g transform="translate(175,250)"></g><g transform="translate(575,1150)"></g><g transform="translate(250,1025)"></g><g transform="translate(950,1025)"></g><g transform="translate(50,575)"></g><g transform="translate(625,50)"></g><g transform="translate(1150,575)"></g><g transform="translate(1150,625)"></g><g transform="translate(50,625)"></g><g transform="translate(250,175)"></g><g transform="translate(1025,250)"></g><g transform="translate(1025,950)"></g><g transform="translate(950,175)"></g><g transform="translate(175,950)"></g><g transform="translate(625,1150)"></g><g transform="translate(650,1150)"></g><g transform="translate(1150,650)"></g><g transform="translate(550,1150)"></g><g transform="translate(650,50)"></g><g transform="translate(1150,550)"></g><g transform="translate(50,550)"></g><g transform="translate(550,50)"></g><g transform="translate(50,650)"></g><g transform="translate(75,775)"></g><g transform="translate(425,1125)"></g><g transform="translate(775,1125)"></g><g transform="translate(425,75)"></g><g transform="translate(1125,775)"></g><g transform="translate(775,75)"></g><g transform="translate(75,425)"></g><g transform="translate(1125,425)"></g><g transform="translate(275,1050)"></g><g transform="translate(675,50)"></g><g transform="translate(675,1150)"></g><g transform="translate(150,925)"></g><g transform="translate(525,50)"></g><g transform="translate(1150,675)"></g><g transform="translate(150,275)"></g><g transform="translate(275,150)"></g><g transform="translate(925,150)"></g><g transform="translate(1050,275)"></g><g transform="translate(50,675)"></g><g transform="translate(925,1050)"></g><g transform="translate(1150,525)"></g><g transform="translate(50,525)"></g><g transform="translate(1050,925)"></g><g transform="translate(525,1150)"></g><g transform="translate(350,1100)"></g><g transform="translate(850,1100)"></g><g transform="translate(850,100)"></g><g transform="translate(50,700)"></g><g transform="translate(1150,700)"></g><g transform="translate(700,1150)"></g><g transform="translate(1150,500)"></g><g transform="translate(500,1150)"></g><g transform="translate(350,100)"></g><g transform="translate(1100,850)"></g><g transform="translate(50,500)"></g><g transform="translate(1100,350)"></g><g transform="translate(100,350)"></g><g transform="translate(500,50)"></g><g transform="translate(700,50)"></g><g transform="translate(100,850)"></g><g transform="translate(400,1125)"></g><g transform="translate(900,1075)"></g><g transform="translate(1125,400)"></g><g transform="translate(75,400)"></g><g transform="translate(75,800)"></g><g transform="translate(800,75)"></g><g transform="translate(400,75)"></g><g transform="translate(1125,800)"></g><g transform="translate(1075,900)"></g><g transform="translate(800,1125)"></g><g transform="translate(900,125)"></g><g transform="translate(300,1075)"></g><g transform="translate(300,125)"></g><g transform="translate(125,900)"></g><g transform="translate(125,300)"></g><g transform="translate(1075,300)"></g><g transform="translate(1150,725)"></g><g transform="translate(50,475)"></g><g transform="translate(475,50)"></g><g transform="translate(50,725)"></g><g transform="translate(725,1150)"></g><g transform="translate(725,50)"></g><g transform="translate(475,1150)"></g><g transform="translate(1150,475)"></g><g transform="translate(200,1000)"></g><g transform="translate(1000,1000)"></g><g transform="translate(200,200)"></g><g transform="translate(1000,200)"></g><g transform="translate(225,1025)"></g><g transform="translate(225,175)"></g><g transform="translate(1025,975)"></g><g transform="translate(975,1025)"></g><g transform="translate(175,975)"></g><g transform="translate(1025,225)"></g><g transform="translate(975,175)"></g><g transform="translate(175,225)"></g><g transform="translate(1150,750)"></g><g transform="translate(950,150)"></g><g transform="translate(450,1150)"></g><g transform="translate(50,450)"></g><g transform="translate(1150,450)"></g><g transform="translate(950,1050)"></g><g transform="translate(250,150)"></g><g transform="translate(450,50)"></g><g transform="translate(150,250)"></g><g transform="translate(1050,950)"></g><g transform="translate(750,50)"></g><g transform="translate(1050,250)"></g><g transform="translate(250,1050)"></g><g transform="translate(150,950)"></g><g transform="translate(50,750)"></g><g transform="translate(750,1150)"></g><g transform="translate(1100,325)"></g><g transform="translate(875,1100)"></g><g transform="translate(100,875)"></g><g transform="translate(875,100)"></g><g transform="translate(100,325)"></g><g transform="translate(1100,875)"></g><g transform="translate(325,100)"></g><g transform="translate(325,1100)"></g><g transform="translate(75,375)"></g><g transform="translate(825,1125)"></g><g transform="translate(75,825)"></g><g transform="translate(1125,375)"></g><g transform="translate(375,1125)"></g><g transform="translate(1125,825)"></g><g transform="translate(375,75)"></g><g transform="translate(825,75)"></g><g transform="translate(1175,600)"></g><g transform="translate(600,1175)"></g><g transform="translate(600,25)"></g><g transform="translate(25,600)"></g><g transform="translate(25,625)"></g><g transform="translate(1075,925)"></g><g transform="translate(25,575)"></g><g transform="translate(1175,575)"></g><g transform="translate(1075,275)"></g><g transform="translate(125,925)"></g><g transform="translate(925,1075)"></g><g transform="translate(275,125)"></g><g transform="translate(1175,625)"></g><g transform="translate(275,1075)"></g><g transform="translate(925,125)"></g><g transform="translate(125,275)"></g><g transform="translate(625,25)"></g><g transform="translate(625,1175)"></g><g transform="translate(575,25)"></g><g transform="translate(575,1175)"></g><g transform="translate(1175,550)"></g><g transform="translate(550,25)"></g><g transform="translate(425,50)"></g><g transform="translate(650,25)"></g><g transform="translate(775,1150)"></g><g transform="translate(650,1175)"></g><g transform="translate(50,425)"></g><g transform="translate(1150,775)"></g><g transform="translate(1175,650)"></g><g transform="translate(1150,425)"></g><g transform="translate(550,1175)"></g><g transform="translate(775,50)"></g><g transform="translate(425,1150)"></g><g transform="translate(25,650)"></g><g transform="translate(50,775)"></g><g transform="translate(25,550)"></g><g transform="translate(675,1175)"></g><g transform="translate(525,25)"></g><g transform="translate(675,25)"></g><g transform="translate(1175,675)"></g><g transform="translate(25,525)"></g><g transform="translate(25,675)"></g><g transform="translate(525,1175)"></g><g transform="translate(1175,525)"></g><g transform="translate(850,75)"></g><g transform="translate(1125,850)"></g><g transform="translate(1125,350)"></g><g transform="translate(75,350)"></g><g transform="translate(850,1125)"></g><g transform="translate(350,75)"></g><g transform="translate(350,1125)"></g><g transform="translate(75,850)"></g><g transform="translate(900,1100)"></g><g transform="translate(1100,900)"></g><g transform="translate(1100,300)"></g><g transform="translate(300,1100)"></g><g transform="translate(100,300)"></g><g transform="translate(300,100)"></g><g transform="translate(900,100)"></g><g transform="translate(100,900)"></g><g transform="translate(500,25)"></g><g transform="translate(25,700)"></g><g transform="translate(175,1000)"></g><g transform="translate(500,1175)"></g><g transform="translate(1175,500)"></g><g transform="translate(1025,1000)"></g><g transform="translate(700,25)"></g><g transform="translate(1000,1025)"></g><g transform="translate(200,175)"></g><g transform="translate(25,500)"></g><g transform="translate(1025,200)"></g><g transform="translate(200,1025)"></g><g transform="translate(1175,700)"></g><g transform="translate(1000,175)"></g><g transform="translate(175,200)"></g><g transform="translate(700,1175)"></g><g transform="translate(400,50)"></g><g transform="translate(1150,400)"></g><g transform="translate(50,400)"></g><g transform="translate(800,1150)"></g><g transform="translate(400,1150)"></g><g transform="translate(50,800)"></g><g transform="translate(1150,800)"></g><g transform="translate(800,50)"></g><g transform="translate(225,1050)"></g><g transform="translate(150,225)"></g><g transform="translate(1050,225)"></g><g transform="translate(975,1050)"></g><g transform="translate(150,975)"></g><g transform="translate(975,150)"></g><g transform="translate(225,150)"></g><g transform="translate(1050,975)"></g><g transform="translate(725,25)"></g><g transform="translate(725,1175)"></g><g transform="translate(475,25)"></g><g transform="translate(25,725)"></g><g transform="translate(475,1175)"></g><g transform="translate(1175,725)"></g><g transform="translate(25,475)"></g><g transform="translate(1175,475)"></g><g transform="translate(125,250)"></g><g transform="translate(1075,950)"></g><g transform="translate(250,125)"></g><g transform="translate(125,950)"></g><g transform="translate(1075,250)"></g><g transform="translate(250,1075)"></g><g transform="translate(950,125)"></g><g transform="translate(950,1075)"></g><g transform="translate(75,325)"></g><g transform="translate(325,75)"></g><g transform="translate(875,75)"></g><g transform="translate(75,875)"></g><g transform="translate(325,1125)"></g><g transform="translate(1125,875)"></g><g transform="translate(875,1125)"></g><g transform="translate(1125,325)"></g><g transform="translate(750,1175)"></g><g transform="translate(50,375)"></g><g transform="translate(1175,750)"></g><g transform="translate(375,50)"></g><g transform="translate(25,750)"></g><g transform="translate(1150,375)"></g><g transform="translate(825,50)"></g><g transform="translate(50,825)"></g><g transform="translate(750,25)"></g><g transform="translate(375,1150)"></g><g transform="translate(1175,450)"></g><g transform="translate(825,1150)"></g><g transform="translate(450,1175)"></g><g transform="translate(450,25)"></g><g transform="translate(1150,825)"></g><g transform="translate(25,450)"></g><g transform="translate(100,925)"></g><g transform="translate(1100,925)"></g><g transform="translate(275,1100)"></g><g transform="translate(100,275)"></g><g transform="translate(1100,275)"></g><g transform="translate(925,1100)"></g><g transform="translate(925,100)"></g><g transform="translate(275,100)"></g><g transform="translate(600,0)"></g><g transform="translate(0,600)"></g><g transform="translate(0,575)"></g><g transform="translate(625,0)"></g><g transform="translate(575,0)"></g><g transform="translate(0,625)"></g><g transform="translate(775,1175)"></g><g transform="translate(1175,775)"></g><g transform="translate(25,425)"></g><g transform="translate(175,175)"></g><g transform="translate(425,25)"></g><g transform="translate(775,25)"></g><g transform="translate(1025,1025)"></g><g transform="translate(1175,425)"></g><g transform="translate(1025,175)"></g><g transform="translate(25,775)"></g><g transform="translate(425,1175)"></g><g transform="translate(175,1025)"></g><g transform="translate(200,1050)"></g><g transform="translate(0,550)"></g><g transform="translate(200,150)"></g><g transform="translate(1000,1050)"></g><g transform="translate(150,200)"></g><g transform="translate(1000,150)"></g><g transform="translate(550,0)"></g><g transform="translate(0,650)"></g><g transform="translate(650,0)"></g><g transform="translate(1050,200)"></g><g transform="translate(1050,1000)"></g><g transform="translate(150,1000)"></g><g transform="translate(50,850)"></g><g transform="translate(850,1150)"></g><g transform="translate(350,50)"></g><g transform="translate(1150,850)"></g><g transform="translate(850,50)"></g><g transform="translate(1150,350)"></g><g transform="translate(350,1150)"></g><g transform="translate(50,350)"></g><g transform="translate(300,75)"></g><g transform="translate(525,0)"></g><g transform="translate(75,300)"></g><g transform="translate(675,0)"></g><g transform="translate(1125,900)"></g><g transform="translate(900,75)"></g><g transform="translate(75,900)"></g><g transform="translate(0,525)"></g><g transform="translate(900,1125)"></g><g transform="translate(300,1125)"></g><g transform="translate(0,675)"></g><g transform="translate(1125,300)"></g><g transform="translate(225,1075)"></g><g transform="translate(125,225)"></g><g transform="translate(1075,975)"></g><g transform="translate(975,1075)"></g><g transform="translate(125,975)"></g><g transform="translate(225,125)"></g><g transform="translate(1075,225)"></g><g transform="translate(975,125)"></g><g transform="translate(0,500)"></g><g transform="translate(700,0)"></g><g transform="translate(0,700)"></g><g transform="translate(500,0)"></g><g transform="translate(1175,800)"></g><g transform="translate(25,400)"></g><g transform="translate(800,1175)"></g><g transform="translate(400,25)"></g><g transform="translate(1175,400)"></g><g transform="translate(800,25)"></g><g transform="translate(400,1175)"></g><g transform="translate(25,800)"></g><g transform="translate(950,1100)"></g><g transform="translate(1100,250)"></g><g transform="translate(950,100)"></g><g transform="translate(250,100)"></g><g transform="translate(1100,950)"></g><g transform="translate(250,1100)"></g><g transform="translate(100,950)"></g><g transform="translate(100,250)"></g><g transform="translate(475,0)"></g><g transform="translate(0,725)"></g><g transform="translate(725,0)"></g><g transform="translate(0,475)"></g><g transform="translate(325,1150)"></g><g transform="translate(1150,325)"></g><g transform="translate(325,50)"></g><g transform="translate(50,325)"></g><g transform="translate(50,875)"></g><g transform="translate(1150,875)"></g><g transform="translate(875,1150)"></g><g transform="translate(875,50)"></g><g transform="translate(375,25)"></g><g transform="translate(1125,925)"></g><g transform="translate(1125,275)"></g><g transform="translate(1175,825)"></g><g transform="translate(375,1175)"></g><g transform="translate(25,825)"></g><g transform="translate(925,1125)"></g><g transform="translate(75,925)"></g><g transform="translate(1175,375)"></g><g transform="translate(275,75)"></g><g transform="translate(25,375)"></g><g transform="translate(825,1175)"></g><g transform="translate(75,275)"></g><g transform="translate(925,75)"></g><g transform="translate(825,25)"></g><g transform="translate(275,1125)"></g><g transform="translate(450,0)"></g><g transform="translate(0,750)"></g><g transform="translate(750,0)"></g><g transform="translate(0,450)"></g><g transform="translate(175,1050)"></g><g transform="translate(150,175)"></g><g transform="translate(150,1025)"></g><g transform="translate(1025,150)"></g><g transform="translate(175,150)"></g><g transform="translate(1050,1025)"></g><g transform="translate(1025,1050)"></g><g transform="translate(1050,175)"></g><g transform="translate(200,125)"></g><g transform="translate(1000,1075)"></g><g transform="translate(1075,200)"></g><g transform="translate(125,200)"></g><g transform="translate(125,1000)"></g><g transform="translate(1000,125)"></g><g transform="translate(200,1075)"></g><g transform="translate(1075,1000)"></g><g transform="translate(100,975)"></g><g transform="translate(225,100)"></g><g transform="translate(225,1100)"></g><g transform="translate(975,100)"></g><g transform="translate(1100,225)"></g><g transform="translate(975,1100)"></g><g transform="translate(775,0)"></g><g transform="translate(0,425)"></g><g transform="translate(100,225)"></g><g transform="translate(0,775)"></g><g transform="translate(1100,975)"></g><g transform="translate(425,0)"></g><g transform="translate(1150,900)"></g><g transform="translate(300,1150)"></g><g transform="translate(50,300)"></g><g transform="translate(300,50)"></g><g transform="translate(50,900)"></g><g transform="translate(1150,300)"></g><g transform="translate(900,1150)"></g><g transform="translate(900,50)"></g><g transform="translate(25,350)"></g><g transform="translate(850,25)"></g><g transform="translate(1175,850)"></g><g transform="translate(350,1175)"></g><g transform="translate(350,25)"></g><g transform="translate(850,1175)"></g><g transform="translate(25,850)"></g><g transform="translate(1175,350)"></g><g transform="translate(950,1125)"></g><g transform="translate(950,75)"></g><g transform="translate(75,250)"></g><g transform="translate(1125,250)"></g><g transform="translate(250,1125)"></g><g transform="translate(75,950)"></g><g transform="translate(250,75)"></g><g transform="translate(1125,950)"></g><g transform="translate(0,800)"></g><g transform="translate(400,0)"></g><g transform="translate(800,0)"></g><g transform="translate(0,400)"></g><g transform="translate(150,150)"></g><g transform="translate(1050,1050)"></g><g transform="translate(1050,150)"></g><g transform="translate(150,1050)"></g><g transform="translate(1025,1075)"></g><g transform="translate(875,1175)"></g><g transform="translate(325,1175)"></g><g transform="translate(1175,325)"></g><g transform="translate(325,25)"></g><g transform="translate(175,125)"></g><g transform="translate(125,175)"></g><g transform="translate(175,1075)"></g><g transform="translate(1025,125)"></g><g transform="translate(1075,1025)"></g><g transform="translate(1175,875)"></g><g transform="translate(25,875)"></g><g transform="translate(25,325)"></g><g transform="translate(125,1025)"></g><g transform="translate(1075,175)"></g><g transform="translate(875,25)"></g><g transform="translate(275,50)"></g><g transform="translate(1150,925)"></g><g transform="translate(1150,275)"></g><g transform="translate(50,275)"></g><g transform="translate(275,1150)"></g><g transform="translate(50,925)"></g><g transform="translate(925,1150)"></g><g transform="translate(925,50)"></g><g transform="translate(100,1000)"></g><g transform="translate(1000,100)"></g><g transform="translate(200,100)"></g><g transform="translate(1100,1000)"></g><g transform="translate(200,1100)"></g><g transform="translate(1000,1100)"></g><g transform="translate(100,200)"></g><g transform="translate(1100,200)"></g><g transform="translate(825,0)"></g><g transform="translate(375,0)"></g><g transform="translate(0,375)"></g><g transform="translate(0,825)"></g><g transform="translate(975,1125)"></g><g transform="translate(225,75)"></g><g transform="translate(1125,975)"></g><g transform="translate(75,975)"></g><g transform="translate(75,225)"></g><g transform="translate(225,1125)"></g><g transform="translate(975,75)"></g><g transform="translate(1125,225)"></g><g transform="translate(300,25)"></g><g transform="translate(900,25)"></g><g transform="translate(1175,300)"></g><g transform="translate(25,900)"></g><g transform="translate(1175,900)"></g><g transform="translate(25,300)"></g><g transform="translate(900,1175)"></g><g transform="translate(300,1175)"></g><g transform="translate(0,850)"></g><g transform="translate(350,0)"></g><g transform="translate(850,0)"></g><g transform="translate(0,350)"></g><g transform="translate(50,950)"></g><g transform="translate(950,50)"></g><g transform="translate(950,1150)"></g><g transform="translate(250,1150)"></g><g transform="translate(50,250)"></g><g transform="translate(250,50)"></g><g transform="translate(1150,250)"></g><g transform="translate(1150,950)"></g><g transform="translate(150,125)"></g><g transform="translate(1075,150)"></g><g transform="translate(150,1075)"></g><g transform="translate(1050,1075)"></g><g transform="translate(125,150)"></g><g transform="translate(1075,1050)"></g><g transform="translate(1050,125)"></g><g transform="translate(125,1050)"></g><g transform="translate(175,1100)"></g><g transform="translate(175,100)"></g><g transform="translate(1100,1025)"></g><g transform="translate(100,175)"></g><g transform="translate(1100,175)"></g><g transform="translate(100,1025)"></g><g transform="translate(1025,1100)"></g><g transform="translate(1025,100)"></g><g transform="translate(1000,1125)"></g><g transform="translate(75,200)"></g><g transform="translate(75,1000)"></g><g transform="translate(325,0)"></g><g transform="translate(1125,1000)"></g><g transform="translate(875,0)"></g><g transform="translate(200,75)"></g><g transform="translate(1000,75)"></g><g transform="translate(1125,200)"></g><g transform="translate(0,875)"></g><g transform="translate(0,325)"></g><g transform="translate(200,1125)"></g><g transform="translate(25,925)"></g><g transform="translate(275,25)"></g><g transform="translate(25,275)"></g><g transform="translate(1175,925)"></g><g transform="translate(925,25)"></g><g transform="translate(275,1175)"></g><g transform="translate(925,1175)"></g><g transform="translate(1175,275)"></g><g transform="translate(975,1150)"></g><g transform="translate(225,50)"></g><g transform="translate(50,225)"></g><g transform="translate(975,50)"></g><g transform="translate(1150,975)"></g><g transform="translate(1150,225)"></g><g transform="translate(225,1150)"></g><g transform="translate(50,975)"></g><g transform="translate(0,900)"></g><g transform="translate(900,0)"></g><g transform="translate(300,0)"></g><g transform="translate(0,300)"></g><g transform="translate(125,125)"></g><g transform="translate(1075,125)"></g><g transform="translate(125,1075)"></g><g transform="translate(1075,1075)"></g><g transform="translate(1100,150)"></g><g transform="translate(1100,1050)"></g><g transform="translate(1050,1100)"></g><g transform="translate(100,150)"></g><g transform="translate(100,1050)"></g><g transform="translate(1050,100)"></g><g transform="translate(150,1100)"></g><g transform="translate(150,100)"></g><g transform="translate(1175,950)"></g><g transform="translate(25,950)"></g><g transform="translate(25,250)"></g><g transform="translate(950,25)"></g><g transform="translate(950,1175)"></g><g transform="translate(1175,250)"></g><g transform="translate(250,25)"></g><g transform="translate(250,1175)"></g><g transform="translate(1025,1125)"></g><g transform="translate(1025,75)"></g><g transform="translate(175,75)"></g><g transform="translate(1125,175)"></g><g transform="translate(75,175)"></g><g transform="translate(75,1025)"></g><g transform="translate(1125,1025)"></g><g transform="translate(175,1125)"></g><g transform="translate(200,1150)"></g><g transform="translate(1000,50)"></g><g transform="translate(50,1000)"></g><g transform="translate(1150,200)"></g><g transform="translate(50,200)"></g><g transform="translate(200,50)"></g><g transform="translate(1150,1000)"></g><g transform="translate(1000,1150)"></g><g transform="translate(925,0)"></g><g transform="translate(0,925)"></g><g transform="translate(275,0)"></g><g transform="translate(0,275)"></g><g transform="translate(975,1175)"></g><g transform="translate(225,25)"></g><g transform="translate(1175,225)"></g><g transform="translate(1175,975)"></g><g transform="translate(225,1175)"></g><g transform="translate(25,225)"></g><g transform="translate(25,975)"></g><g transform="translate(975,25)"></g><g transform="translate(125,100)"></g><g transform="translate(1100,1075)"></g><g transform="translate(1100,125)"></g><g transform="translate(100,1075)"></g><g transform="translate(125,1100)"></g><g transform="translate(100,125)"></g><g transform="translate(1075,100)"></g><g transform="translate(1075,1100)"></g><g transform="translate(1125,1050)"></g><g transform="translate(75,1050)"></g><g transform="translate(1125,150)"></g><g transform="translate(1050,1125)"></g><g transform="translate(150,75)"></g><g transform="translate(75,150)"></g><g transform="translate(1050,75)"></g><g transform="translate(150,1125)"></g><g transform="translate(250,0)"></g><g transform="translate(0,250)"></g><g transform="translate(950,0)"></g><g transform="translate(0,950)"></g><g transform="translate(1150,175)"></g><g transform="translate(1025,50)"></g><g transform="translate(50,175)"></g><g transform="translate(175,50)"></g><g transform="translate(1150,1025)"></g><g transform="translate(50,1025)"></g><g transform="translate(175,1150)"></g><g transform="translate(1025,1150)"></g><g transform="translate(200,1175)"></g><g transform="translate(1175,1000)"></g><g transform="translate(1000,1175)"></g><g transform="translate(25,200)"></g><g transform="translate(1175,200)"></g><g transform="translate(200,25)"></g><g transform="translate(1000,25)"></g><g transform="translate(25,1000)"></g><g transform="translate(100,100)"></g><g transform="translate(100,1100)"></g><g transform="translate(1100,1100)"></g><g transform="translate(1100,100)"></g><g transform="translate(0,225)"></g><g transform="translate(975,0)"></g><g transform="translate(0,975)"></g><g transform="translate(225,0)"></g><g transform="translate(75,125)"></g><g transform="translate(1125,125)"></g><g transform="translate(1075,1125)"></g><g transform="translate(125,1125)"></g><g transform="translate(1075,75)"></g><g transform="translate(75,1075)"></g><g transform="translate(1125,1075)"></g><g transform="translate(125,75)"></g><g transform="translate(50,150)"></g><g transform="translate(150,50)"></g><g transform="translate(1150,150)"></g><g transform="translate(1150,1050)"></g><g transform="translate(50,1050)"></g><g transform="translate(1050,50)"></g><g transform="translate(1050,1150)"></g><g transform="translate(150,1150)"></g><g transform="translate(25,175)"></g><g transform="translate(1175,175)"></g><g transform="translate(1175,1025)"></g><g transform="translate(25,1025)"></g><g transform="translate(175,1175)"></g><g transform="translate(1025,25)"></g><g transform="translate(1025,1175)"></g><g transform="translate(175,25)"></g><g transform="translate(0,200)"></g><g transform="translate(1000,0)"></g><g transform="translate(200,0)"></g><g transform="translate(0,1000)"></g><g transform="translate(75,100)"></g><g transform="translate(100,75)"></g><g transform="translate(75,1100)"></g><g transform="translate(1100,1125)"></g><g transform="translate(100,1125)"></g><g transform="translate(1125,100)"></g><g transform="translate(1125,1100)"></g><g transform="translate(1100,75)"></g><g transform="translate(50,125)"></g><g transform="translate(1150,1075)"></g><g transform="translate(1075,50)"></g><g transform="translate(1150,125)"></g><g transform="translate(1075,1150)"></g><g transform="translate(125,50)"></g><g transform="translate(50,1075)"></g><g transform="translate(125,1150)"></g><g transform="translate(1050,1175)"></g><g transform="translate(1175,1050)"></g><g transform="translate(150,1175)"></g><g transform="translate(150,25)"></g><g transform="translate(25,150)"></g><g transform="translate(1175,150)"></g><g transform="translate(1050,25)"></g><g transform="translate(25,1050)"></g><g transform="translate(0,175)"></g><g transform="translate(0,1025)"></g><g transform="translate(1025,0)"></g><g transform="translate(175,0)"></g><g transform="translate(1125,75)"></g><g transform="translate(75,75)"></g><g transform="translate(75,1125)"></g><g transform="translate(1125,1125)"></g><g transform="translate(1150,1100)"></g><g transform="translate(1100,50)"></g><g transform="translate(100,1150)"></g><g transform="translate(100,50)"></g><g transform="translate(50,1100)"></g><g transform="translate(50,100)"></g><g transform="translate(1100,1150)"></g><g transform="translate(1150,100)"></g><g transform="translate(25,1075)"></g><g transform="translate(1175,1075)"></g><g transform="translate(1075,1175)"></g><g transform="translate(25,125)"></g><g transform="translate(1175,125)"></g><g transform="translate(1075,25)"></g><g transform="translate(125,25)"></g><g transform="translate(125,1175)"></g><g transform="translate(0,1050)"></g><g transform="translate(0,150)"></g><g transform="translate(150,0)"></g><g transform="translate(1050,0)"></g><g transform="translate(1150,75)"></g><g transform="translate(50,1125)"></g><g transform="translate(75,50)"></g><g transform="translate(1150,1125)"></g><g transform="translate(1125,50)"></g><g transform="translate(50,75)"></g><g transform="translate(75,1150)"></g><g transform="translate(1125,1150)"></g><g transform="translate(100,25)"></g><g transform="translate(1100,1175)"></g><g transform="translate(100,1175)"></g><g transform="translate(1175,100)"></g><g transform="translate(1175,1100)"></g><g transform="translate(25,100)"></g><g transform="translate(1100,25)"></g><g transform="translate(25,1100)"></g><g transform="translate(1075,0)"></g><g transform="translate(125,0)"></g><g transform="translate(0,1075)"></g><g transform="translate(0,125)"></g><g transform="translate(1150,1150)"></g><g transform="translate(50,50)"></g><g transform="translate(1150,50)"></g><g transform="translate(50,1150)"></g><g transform="translate(1125,1175)"></g><g transform="translate(1175,1125)"></g><g transform="translate(25,75)"></g><g transform="translate(25,1125)"></g><g transform="translate(75,1175)"></g><g transform="translate(1125,25)"></g><g transform="translate(1175,75)"></g><g transform="translate(75,25)"></g><g transform="translate(0,100)"></g><g transform="translate(100,0)"></g><g transform="translate(0,1100)"></g><g transform="translate(1100,0)"></g><g transform="translate(1175,50)"></g><g transform="translate(1150,25)"></g><g transform="translate(1175,1150)"></g><g transform="translate(50,25)"></g><g transform="translate(25,50)"></g><g transform="translate(25,1150)"></g><g transform="translate(50,1175)"></g><g transform="translate(1150,1175)"></g><g transform="translate(1125,0)"></g><g transform="translate(75,0)"></g><g transform="translate(0,1125)"></g><g transform="translate(0,75)"></g><g transform="translate(1175,25)"></g><g transform="translate(25,25)"></g><g transform="translate(25,1175)"></g><g transform="translate(1175,1175)"></g><g transform="translate(0,1150)"></g><g transform="translate(0,50)"></g><g transform="translate(1150,0)"></g><g transform="translate(50,0)"></g><g transform="translate(0,1175)"></g><g transform="translate(25,0)"></g><g transform="translate(0,25)"></g><g transform="translate(1175,0)"></g><g transform="translate(0,0)"></g></g></svg>