<?xml version="1.0" encoding="utf-8"?>
<!-- Generator: Adobe Illustrator 19.2.1, SVG Export Plug-In . SVG Version: 6.00 Build 0)  -->
<svg version="1.1" id="canvas" xmlns="http://www.w3.org/2000/svg" xmlns:xlink="http://www.w3.org/1999/xlink" x="0px" y="0px"
	 viewBox="0 0 1000 1000" style="enable-background:new 0 0 1000 1000;" xml:space="preserve">
<style type="text/css">
	.st0{opacity:0.8;fill:#313695;enable-background:new    ;}
	.st1{opacity:0.8;fill:#EDF8DC;enable-background:new    ;}
	.st2{opacity:0.8;fill:#FED88B;enable-background:new    ;}
	.st3{opacity:0.8;fill:#C6E6EF;enable-background:new    ;}
	.st4{opacity:0.8;fill:#D2ECEF;enable-background:new    ;}
	.st5{opacity:0.8;fill:#89BDDA;enable-background:new    ;}
	.st6{opacity:0.8;fill:#6499C7;enable-background:new    ;}
	.st7{opacity:0.8;fill:#4E7BB7;enable-background:new    ;}
	.st8{opacity:0.8;fill:#E2F3E8;enable-background:new    ;}
	.st9{opacity:0.8;fill:#FDF4B2;enable-background:new    ;}
	.st10{opacity:0.8;fill:#FA9D5B;enable-background:new    ;}
	.st11{opacity:0.8;fill:#3950A2;enable-background:new    ;}
	.st12{opacity:0.8;fill:#FEDD91;enable-background:new    ;}
	.st13{opacity:0.8;fill:#5D90C2;enable-background:new    ;}
	.st14{opacity:0.8;fill:#F4F9CF;enable-background:new    ;}
	.st15{opacity:0.8;fill:#FDBB6F;enable-background:new    ;}
	.st16{opacity:0.8;fill:#84B9D8;enable-background:new    ;}
	.st17{opacity:0.8;fill:#E65136;enable-background:new    ;}
	.st18{opacity:0.8;fill:#4C77B5;enable-background:new    ;}
	.st19{opacity:0.8;fill:#A7D3E6;enable-background:new    ;}
	.st20{opacity:0.8;fill:#99C9E1;enable-background:new    ;}
	.st21{opacity:0.8;fill:#384B9F;enable-background:new    ;}
	.st22{opacity:0.8;fill:#FEEDA5;enable-background:new    ;}
	.st23{opacity:0.8;fill:#DC3F30;enable-background:new    ;}
	.st24{opacity:0.8;fill:#DFF2EA;enable-background:new    ;}
	.st25{opacity:0.8;fill:#6195C5;enable-background:new    ;}
	.st26{opacity:0.8;fill:#F1F8D6;enable-background:new    ;}
	.st27{opacity:0.8;fill:#CBE8EF;enable-background:new    ;}
	.st28{opacity:0.8;fill:#6195C4;enable-background:new    ;}
	.st29{opacity:0.8;fill:#F88C52;enable-background:new    ;}
	.st30{opacity:0.8;fill:#6297C6;enable-background:new    ;}
	.st31{opacity:0.8;fill:#FECE80;enable-background:new    ;}
	.st32{opacity:0.8;fill:#EDF7DC;enable-background:new    ;}
	.st33{opacity:0.8;fill:#FEE397;enable-background:new    ;}
	.st34{opacity:0.8;fill:#DDF1EB;enable-background:new    ;}
	.st35{opacity:0.8;fill:#6296C5;enable-background:new    ;}
	.st36{opacity:0.8;fill:#5281BA;enable-background:new    ;}
	.st37{opacity:0.8;fill:#FEEEA7;enable-background:new    ;}
	.st38{opacity:0.8;fill:#5C8EC1;enable-background:new    ;}
	.st39{opacity:0.8;fill:#394EA1;enable-background:new    ;}
	.st40{opacity:0.8;fill:#EFF8D9;enable-background:new    ;}
	.st41{opacity:0.8;fill:#81B6D6;enable-background:new    ;}
	.st42{opacity:0.8;fill:#71A7CE;enable-background:new    ;}
	.st43{opacity:0.8;fill:#C7E6EF;enable-background:new    ;}
	.st44{opacity:0.8;fill:#F8F9C6;enable-background:new    ;}
	.st45{opacity:0.8;fill:#F0F8D7;enable-background:new    ;}
	.st46{opacity:0.8;fill:#B5DDEB;enable-background:new    ;}
	.st47{opacity:0.8;fill:#DB3D2F;enable-background:new    ;}
	.st48{opacity:0.8;fill:#5281BB;enable-background:new    ;}
	.st49{opacity:0.8;fill:#FDF3B1;enable-background:new    ;}
	.st50{opacity:0.8;fill:#BCE0ED;enable-background:new    ;}
	.st51{opacity:0.8;fill:#ED633E;enable-background:new    ;}
	.st52{opacity:0.8;fill:#EBF7DF;enable-background:new    ;}
	.st53{opacity:0.8;fill:#CA2629;enable-background:new    ;}
	.st54{opacity:0.8;fill:#8EC1DC;enable-background:new    ;}
	.st55{opacity:0.8;fill:#C2E4EE;enable-background:new    ;}
	.st56{opacity:0.8;fill:#4A75B4;enable-background:new    ;}
	.st57{opacity:0.8;fill:#FDCA7D;enable-background:new    ;}
	.st58{opacity:0.8;fill:#EAF6E0;enable-background:new    ;}
	.st59{opacity:0.8;fill:#AED8E9;enable-background:new    ;}
	.st60{opacity:0.8;fill:#D4EDEF;enable-background:new    ;}
	.st61{opacity:0.8;fill:#3D59A6;enable-background:new    ;}
	.st62{opacity:0.8;fill:#D9EFED;enable-background:new    ;}
	.st63{opacity:0.8;fill:#B1DAEA;enable-background:new    ;}
	.st64{opacity:0.8;fill:#B2DBEA;enable-background:new    ;}
	.st65{opacity:0.8;fill:#3E5BA7;enable-background:new    ;}
	.st66{opacity:0.8;fill:#FDBC70;enable-background:new    ;}
	.st67{opacity:0.8;fill:#FED688;enable-background:new    ;}
	.st68{opacity:0.8;fill:#F3F9D2;enable-background:new    ;}
	.st69{opacity:0.8;fill:#FAF8C0;enable-background:new    ;}
	.st70{opacity:0.8;fill:#EF6841;enable-background:new    ;}
	.st71{opacity:0.8;fill:#6FA5CD;enable-background:new    ;}
	.st72{opacity:0.8;fill:#5484BC;enable-background:new    ;}
	.st73{opacity:0.8;fill:#EDF7DD;enable-background:new    ;}
	.st74{opacity:0.8;fill:#36469D;enable-background:new    ;}
	.st75{opacity:0.8;fill:#6A9FCA;enable-background:new    ;}
	.st76{opacity:0.8;fill:#679CC8;enable-background:new    ;}
	.st77{opacity:0.8;fill:#476FB1;enable-background:new    ;}
	.st78{opacity:0.8;fill:#FED689;enable-background:new    ;}
	.st79{opacity:0.8;fill:#9DCCE2;enable-background:new    ;}
	.st80{opacity:0.8;fill:#D8EFEE;enable-background:new    ;}
	.st81{opacity:0.8;fill:#DCF1EC;enable-background:new    ;}
	.st82{opacity:0.8;fill:#E8F6E2;enable-background:new    ;}
	.st83{opacity:0.8;fill:#E9F6E1;enable-background:new    ;}
	.st84{opacity:0.8;fill:#4B77B5;enable-background:new    ;}
	.st85{opacity:0.8;fill:#A5D3E6;enable-background:new    ;}
	.st86{opacity:0.8;fill:#FCB66B;enable-background:new    ;}
	.st87{opacity:0.8;fill:#98C9E0;enable-background:new    ;}
	.st88{opacity:0.8;fill:#4C78B6;enable-background:new    ;}
	.st89{opacity:0.8;fill:#D6EEEE;enable-background:new    ;}
	.st90{opacity:0.8;fill:#E6F5E5;enable-background:new    ;}
	.st91{opacity:0.8;fill:#FDF1AE;enable-background:new    ;}
	.st92{opacity:0.8;fill:#B3DBEA;enable-background:new    ;}
	.st93{opacity:0.8;fill:#E65237;enable-background:new    ;}
	.st94{opacity:0.8;fill:#4060AA;enable-background:new    ;}
	.st95{opacity:0.8;fill:#34409A;enable-background:new    ;}
	.st96{opacity:0.8;fill:#36459C;enable-background:new    ;}
	.st97{opacity:0.8;fill:#96C7DF;enable-background:new    ;}
	.st98{opacity:0.8;fill:#4162AB;enable-background:new    ;}
	.st99{opacity:0.8;fill:#B7DEEC;enable-background:new    ;}
	.st100{opacity:0.8;fill:#323997;enable-background:new    ;}
	.st101{opacity:0.8;fill:#6196C5;enable-background:new    ;}
	.st102{opacity:0.8;fill:#FED487;enable-background:new    ;}
	.st103{opacity:0.8;fill:#FEE195;enable-background:new    ;}
	.st104{opacity:0.8;fill:#6094C4;enable-background:new    ;}
	.st105{opacity:0.8;fill:#DAEFED;enable-background:new    ;}
	.st106{opacity:0.8;fill:#FCAE65;enable-background:new    ;}
	.st107{opacity:0.8;fill:#BEE2ED;enable-background:new    ;}
	.st108{opacity:0.8;fill:#C5E6EF;enable-background:new    ;}
	.st109{opacity:0.8;fill:#FBA45F;enable-background:new    ;}
	.st110{opacity:0.8;fill:#F7F9C8;enable-background:new    ;}
	.st111{opacity:0.8;fill:#FEEDA6;enable-background:new    ;}
	.st112{opacity:0.8;fill:#FDCA7C;enable-background:new    ;}
	.st113{opacity:0.8;fill:#FECB7E;enable-background:new    ;}
	.st114{opacity:0.8;fill:#FCF6B9;enable-background:new    ;}
	.st115{opacity:0.8;fill:#5E92C3;enable-background:new    ;}
	.st116{opacity:0.8;fill:#323996;enable-background:new    ;}
	.st117{opacity:0.8;fill:#93C5DE;enable-background:new    ;}
	.st118{opacity:0.8;fill:#4D7AB7;enable-background:new    ;}
	.st119{opacity:0.8;fill:#DDF1EC;enable-background:new    ;}
	.st120{opacity:0.8;fill:#FDC376;enable-background:new    ;}
	.st121{opacity:0.8;fill:#71A6CE;enable-background:new    ;}
	.st122{opacity:0.8;fill:#B61127;enable-background:new    ;}
	.st123{opacity:0.8;fill:#333D98;enable-background:new    ;}
	.st124{opacity:0.8;fill:#476EB1;enable-background:new    ;}
	.st125{opacity:0.8;fill:#5A8CC0;enable-background:new    ;}
	.st126{opacity:0.8;fill:#FBA660;enable-background:new    ;}
	.st127{opacity:0.8;fill:#99CAE1;enable-background:new    ;}
</style>
<g>
	<g transform="translate(500,500)">
		<rect y="0" class="st0" width="25" height="25"/>
	</g>
	<g transform="translate(500,475)">
		<rect y="0" class="st1" width="25" height="25"/>
	</g>
	<g transform="translate(525,500)">
		<rect y="0" class="st2" width="25" height="25"/>
	</g>
	<g transform="translate(475,500)">
		<rect y="0" class="st3" width="25" height="25"/>
	</g>
	<g transform="translate(500,525)">
		<rect y="0" class="st4" width="25" height="25"/>
	</g>
	<g transform="translate(525,475)">
		<rect y="0" class="st5" width="25" height="25"/>
	</g>
	<g transform="translate(525,525)">
		<rect y="0" class="st6" width="25" height="25"/>
	</g>
	<g transform="translate(475,525)">
		<rect y="0" class="st7" width="25" height="25"/>
	</g>
	<g transform="translate(500,550)">
		<rect y="0" class="st0" width="25" height="25"/>
	</g>
	<g transform="translate(500,450)">
		<rect y="0" class="st8" width="25" height="25"/>
	</g>
	<g transform="translate(450,475)">
		<rect y="0" class="st9" width="25" height="25"/>
	</g>
	<g transform="translate(525,550)">
		<rect y="0" class="st10" width="25" height="25"/>
	</g>
	<g transform="translate(550,475)">
		<rect y="0" class="st11" width="25" height="25"/>
	</g>
	<g transform="translate(475,450)">
		<rect y="0" class="st12" width="25" height="25"/>
	</g>
	<g transform="translate(525,450)">
		<rect y="0" class="st13" width="25" height="25"/>
	</g>
	<g transform="translate(475,550)">
		<rect y="0" class="st14" width="25" height="25"/>
	</g>
	<g transform="translate(450,525)">
		<rect y="0" class="st15" width="25" height="25"/>
	</g>
	<g transform="translate(550,525)">
		<rect y="0" class="st16" width="25" height="25"/>
	</g>
	<g transform="translate(450,450)">
		<rect y="0" class="st17" width="25" height="25"/>
	</g>
	<g transform="translate(550,450)">
		<rect y="0" class="st18" width="25" height="25"/>
	</g>
	<g transform="translate(550,550)">
		<rect y="0" class="st19" width="25" height="25"/>
	</g>
	<g transform="translate(500,425)">
		<rect y="0" class="st20" width="25" height="25"/>
	</g>
	<g transform="translate(500,575)">
		<rect y="0" class="st0" width="25" height="25"/>
	</g>
	<g transform="translate(575,500)">
		<rect y="0" class="st21" width="25" height="25"/>
	</g>
	<g transform="translate(525,425)">
		<rect y="0" class="st22" width="25" height="25"/>
	</g>
	<g transform="translate(575,475)">
		<rect y="0" class="st0" width="25" height="25"/>
	</g>
	<g transform="translate(525,575)">
		<rect y="0" class="st23" width="25" height="25"/>
	</g>
	<g transform="translate(425,525)">
		<rect y="0" class="st24" width="25" height="25"/>
	</g>
	<g transform="translate(475,425)">
		<rect y="0" class="st25" width="25" height="25"/>
	</g>
	<g transform="translate(425,475)">
		<rect y="0" class="st26" width="25" height="25"/>
	</g>
	<g transform="translate(575,450)">
		<rect y="0" class="st27" width="25" height="25"/>
	</g>
	<g transform="translate(550,575)">
		<rect y="0" class="st28" width="25" height="25"/>
	</g>
	<g transform="translate(575,550)">
		<rect y="0" class="st29" width="25" height="25"/>
	</g>
	<g transform="translate(450,575)">
		<rect y="0" class="st0" width="25" height="25"/>
	</g>
	<g transform="translate(425,550)">
		<rect y="0" class="st30" width="25" height="25"/>
	</g>
	<g transform="translate(450,425)">
		<rect y="0" class="st31" width="25" height="25"/>
	</g>
	<g transform="translate(425,450)">
		<rect y="0" class="st32" width="25" height="25"/>
	</g>
	<g transform="translate(600,500)">
		<rect y="0" class="st0" width="25" height="25"/>
	</g>
	<g transform="translate(400,500)">
		<rect y="0" class="st0" width="25" height="25"/>
	</g>
	<g transform="translate(500,400)">
		<rect y="0" class="st33" width="25" height="25"/>
	</g>
	<g transform="translate(475,600)">
		<rect y="0" class="st34" width="25" height="25"/>
	</g>
	<g transform="translate(400,525)">
		<rect y="0" class="st35" width="25" height="25"/>
	</g>
	<g transform="translate(600,475)">
		<rect y="0" class="st36" width="25" height="25"/>
	</g>
	<g transform="translate(525,600)">
		<rect y="0" class="st37" width="25" height="25"/>
	</g>
	<g transform="translate(475,400)">
		<rect y="0" class="st38" width="25" height="25"/>
	</g>
	<g transform="translate(400,475)">
		<rect y="0" class="st39" width="25" height="25"/>
	</g>
	<g transform="translate(575,575)">
		<rect y="0" class="st0" width="25" height="25"/>
	</g>
	<g transform="translate(575,425)">
		<rect y="0" class="st40" width="25" height="25"/>
	</g>
	<g transform="translate(400,450)">
		<rect y="0" class="st41" width="25" height="25"/>
	</g>
	<g transform="translate(550,600)">
		<rect y="0" class="st42" width="25" height="25"/>
	</g>
	<g transform="translate(450,400)">
		<rect y="0" class="st43" width="25" height="25"/>
	</g>
	<g transform="translate(550,400)">
		<rect y="0" class="st44" width="25" height="25"/>
	</g>
	<g transform="translate(600,450)">
		<rect y="0" class="st45" width="25" height="25"/>
	</g>
	<g transform="translate(600,575)">
		<rect y="0" class="st46" width="25" height="25"/>
	</g>
	<g transform="translate(600,425)">
		<rect y="0" class="st47" width="25" height="25"/>
	</g>
	<g transform="translate(400,425)">
		<rect y="0" class="st48" width="25" height="25"/>
	</g>
	<g transform="translate(500,375)">
		<rect y="0" class="st49" width="25" height="25"/>
	</g>
	<g transform="translate(375,500)">
		<rect y="0" class="st50" width="25" height="25"/>
	</g>
	<g transform="translate(625,500)">
		<rect y="0" class="st51" width="25" height="25"/>
	</g>
	<g transform="translate(575,600)">
		<rect y="0" class="st0" width="25" height="25"/>
	</g>
	<g transform="translate(575,400)">
		<rect y="0" class="st52" width="25" height="25"/>
	</g>
	<g transform="translate(425,600)">
		<rect y="0" class="st53" width="25" height="25"/>
	</g>
	<g transform="translate(375,525)">
		<rect y="0" class="st0" width="25" height="25"/>
	</g>
	<g transform="translate(475,375)">
		<rect y="0" class="st54" width="25" height="25"/>
	</g>
	<g transform="translate(625,475)">
		<rect y="0" class="st55" width="25" height="25"/>
	</g>
	<g transform="translate(525,625)">
		<rect y="0" class="st0" width="25" height="25"/>
	</g>
	<g transform="translate(475,625)">
		<rect y="0" class="st56" width="25" height="25"/>
	</g>
	<g transform="translate(625,450)">
		<rect y="0" class="st57" width="25" height="25"/>
	</g>
	<g transform="translate(450,375)">
		<rect y="0" class="st58" width="25" height="25"/>
	</g>
	<g transform="translate(625,550)">
		<rect y="0" class="st59" width="25" height="25"/>
	</g>
	<g transform="translate(550,625)">
		<rect y="0" class="st60" width="25" height="25"/>
	</g>
	<g transform="translate(375,550)">
		<rect y="0" class="st61" width="25" height="25"/>
	</g>
	<g transform="translate(375,450)">
		<rect y="0" class="st22" width="25" height="25"/>
	</g>
	<g transform="translate(600,400)">
		<rect y="0" class="st62" width="25" height="25"/>
	</g>
	<g transform="translate(425,375)">
		<rect y="0" class="st63" width="25" height="25"/>
	</g>
	<g transform="translate(425,625)">
		<rect y="0" class="st64" width="25" height="25"/>
	</g>
	<g transform="translate(625,575)">
		<rect y="0" class="st65" width="25" height="25"/>
	</g>
	<g transform="translate(575,375)">
		<rect y="0" class="st66" width="25" height="25"/>
	</g>
	<g transform="translate(650,475)">
		<rect y="0" class="st67" width="25" height="25"/>
	</g>
	<g transform="translate(475,650)">
		<rect y="0" class="st0" width="25" height="25"/>
	</g>
	<g transform="translate(350,525)">
		<rect y="0" class="st50" width="25" height="25"/>
	</g>
	<g transform="translate(650,525)">
		<rect y="0" class="st68" width="25" height="25"/>
	</g>
	<g transform="translate(450,650)">
		<rect y="0" class="st69" width="25" height="25"/>
	</g>
	<g transform="translate(450,350)">
		<rect y="0" class="st59" width="25" height="25"/>
	</g>
	<g transform="translate(625,400)">
		<rect y="0" class="st3" width="25" height="25"/>
	</g>
	<g transform="translate(625,600)">
		<rect y="0" class="st70" width="25" height="25"/>
	</g>
	<g transform="translate(600,375)">
		<rect y="0" class="st71" width="25" height="25"/>
	</g>
	<g transform="translate(375,400)">
		<rect y="0" class="st15" width="25" height="25"/>
	</g>
	<g transform="translate(350,575)">
		<rect y="0" class="st0" width="25" height="25"/>
	</g>
	<g transform="translate(425,650)">
		<rect y="0" class="st72" width="25" height="25"/>
	</g>
	<g transform="translate(575,650)">
		<rect y="0" class="st73" width="25" height="25"/>
	</g>
	<g transform="translate(425,350)">
		<rect y="0" class="st0" width="25" height="25"/>
	</g>
	<g transform="translate(500,325)">
		<rect y="0" class="st74" width="25" height="25"/>
	</g>
	<g transform="translate(675,500)">
		<rect y="0" class="st75" width="25" height="25"/>
	</g>
	<g transform="translate(325,500)">
		<rect y="0" class="st76" width="25" height="25"/>
	</g>
	<g transform="translate(675,475)">
		<rect y="0" class="st77" width="25" height="25"/>
	</g>
	<g transform="translate(625,625)">
		<rect y="0" class="st78" width="25" height="25"/>
	</g>
	<g transform="translate(675,525)">
		<rect y="0" class="st79" width="25" height="25"/>
	</g>
	<g transform="translate(650,400)">
		<rect y="0" class="st80" width="25" height="25"/>
	</g>
	<g transform="translate(650,600)">
		<rect y="0" class="st81" width="25" height="25"/>
	</g>
	<g transform="translate(600,650)">
		<rect y="0" class="st62" width="25" height="25"/>
	</g>
	<g transform="translate(350,600)">
		<rect y="0" class="st19" width="25" height="25"/>
	</g>
	<g transform="translate(400,350)">
		<rect y="0" class="st82" width="25" height="25"/>
	</g>
	<g transform="translate(550,325)">
		<rect y="0" class="st83" width="25" height="25"/>
	</g>
	<g transform="translate(675,425)">
		<rect y="0" class="st84" width="25" height="25"/>
	</g>
	<g transform="translate(325,425)">
		<rect y="0" class="st85" width="25" height="25"/>
	</g>
	<g transform="translate(425,325)">
		<rect y="0" class="st86" width="25" height="25"/>
	</g>
	<g transform="translate(375,650)">
		<rect y="0" class="st0" width="25" height="25"/>
	</g>
	<g transform="translate(650,375)">
		<rect y="0" class="st87" width="25" height="25"/>
	</g>
	<g transform="translate(350,375)">
		<rect y="0" class="st88" width="25" height="25"/>
	</g>
	<g transform="translate(650,625)">
		<rect y="0" class="st89" width="25" height="25"/>
	</g>
	<g transform="translate(700,525)">
		<rect y="0" class="st90" width="25" height="25"/>
	</g>
	<g transform="translate(400,675)">
		<rect y="0" class="st91" width="25" height="25"/>
	</g>
	<g transform="translate(400,325)">
		<rect y="0" class="st92" width="25" height="25"/>
	</g>
	<g transform="translate(600,675)">
		<rect y="0" class="st93" width="25" height="25"/>
	</g>
	<g transform="translate(525,700)">
		<rect y="0" class="st94" width="25" height="25"/>
	</g>
	<g transform="translate(675,400)">
		<rect y="0" class="st0" width="25" height="25"/>
	</g>
	<g transform="translate(450,300)">
		<rect y="0" class="st95" width="25" height="25"/>
	</g>
	<g transform="translate(700,550)">
		<rect y="0" class="st96" width="25" height="25"/>
	</g>
	<g transform="translate(700,450)">
		<rect y="0" class="st62" width="25" height="25"/>
	</g>
	<g transform="translate(350,350)">
		<rect y="0" class="st0" width="25" height="25"/>
	</g>
	<g transform="translate(650,350)">
		<rect y="0" class="st0" width="25" height="25"/>
	</g>
	<g transform="translate(650,650)">
		<rect y="0" class="st97" width="25" height="25"/>
	</g>
	<g transform="translate(575,700)">
		<rect y="0" class="st0" width="25" height="25"/>
	</g>
	<g transform="translate(575,300)">
		<rect y="0" class="st98" width="25" height="25"/>
	</g>
	<g transform="translate(425,300)">
		<rect y="0" class="st99" width="25" height="25"/>
	</g>
	<g transform="translate(300,425)">
		<rect y="0" class="st100" width="25" height="25"/>
	</g>
	<g transform="translate(700,575)">
		<rect y="0" class="st101" width="25" height="25"/>
	</g>
	<g transform="translate(700,425)">
		<rect y="0" class="st55" width="25" height="25"/>
	</g>
	<g transform="translate(300,575)">
		<rect y="0" class="st102" width="25" height="25"/>
	</g>
	<g transform="translate(375,675)">
		<rect y="0" class="st0" width="25" height="25"/>
	</g>
	<g transform="translate(325,375)">
		<rect y="0" class="st103" width="25" height="25"/>
	</g>
	<g transform="translate(375,325)">
		<rect y="0" class="st104" width="25" height="25"/>
	</g>
	<g transform="translate(625,675)">
		<rect y="0" class="st105" width="25" height="25"/>
	</g>
	<g transform="translate(600,700)">
		<rect y="0" class="st92" width="25" height="25"/>
	</g>
	<g transform="translate(300,400)">
		<rect y="0" class="st106" width="25" height="25"/>
	</g>
	<g transform="translate(275,500)">
		<rect y="0" class="st3" width="25" height="25"/>
	</g>
	<g transform="translate(275,475)">
		<rect y="0" class="st50" width="25" height="25"/>
	</g>
	<g transform="translate(725,475)">
		<rect y="0" class="st45" width="25" height="25"/>
	</g>
	<g transform="translate(525,275)">
		<rect y="0" class="st107" width="25" height="25"/>
	</g>
	<g transform="translate(300,375)">
		<rect y="0" class="st0" width="25" height="25"/>
	</g>
	<g transform="translate(300,625)">
		<rect y="0" class="st108" width="25" height="25"/>
	</g>
	<g transform="translate(700,625)">
		<rect y="0" class="st109" width="25" height="25"/>
	</g>
	<g transform="translate(575,275)">
		<rect y="0" class="st77" width="25" height="25"/>
	</g>
	<g transform="translate(425,725)">
		<rect y="0" class="st110" width="25" height="25"/>
	</g>
	<g transform="translate(275,600)">
		<rect y="0" class="st111" width="25" height="25"/>
	</g>
	<g transform="translate(525,250)">
		<rect y="0" class="st112" width="25" height="25"/>
	</g>
	<g transform="translate(750,550)">
		<rect y="0" class="st113" width="25" height="25"/>
	</g>
	<g transform="translate(550,250)">
		<rect y="0" class="st114" width="25" height="25"/>
	</g>
	<g transform="translate(275,375)">
		<rect y="0" class="st115" width="25" height="25"/>
	</g>
	<g transform="translate(250,425)">
		<rect y="0" class="st116" width="25" height="25"/>
	</g>
	<g transform="translate(675,700)">
		<rect y="0" class="st117" width="25" height="25"/>
	</g>
	<g transform="translate(750,600)">
		<rect y="0" class="st118" width="25" height="25"/>
	</g>
	<g transform="translate(225,475)">
		<rect y="0" class="st80" width="25" height="25"/>
	</g>
	<g transform="translate(625,750)">
		<rect y="0" class="st119" width="25" height="25"/>
	</g>
	<g transform="translate(325,275)">
		<rect y="0" class="st120" width="25" height="25"/>
	</g>
	<g transform="translate(525,800)">
		<rect y="0" class="st121" width="25" height="25"/>
	</g>
	<g transform="translate(200,475)">
		<rect y="0" class="st122" width="25" height="25"/>
	</g>
	<g transform="translate(800,550)">
		<rect y="0" class="st39" width="25" height="25"/>
	</g>
	<g transform="translate(325,250)">
		<rect y="0" class="st123" width="25" height="25"/>
	</g>
	<g transform="translate(800,425)">
		<rect y="0" class="st124" width="25" height="25"/>
	</g>
	<g transform="translate(200,400)">
		<rect y="0" class="st101" width="25" height="25"/>
	</g>
	<g transform="translate(175,525)">
		<rect y="0" class="st125" width="25" height="25"/>
	</g>
	<g transform="translate(825,475)">
		<rect y="0" class="st125" width="25" height="25"/>
	</g>
	<g transform="translate(725,250)">
		<rect y="0" class="st99" width="25" height="25"/>
	</g>
	<g transform="translate(800,675)">
		<rect y="0" class="st85" width="25" height="25"/>
	</g>
	<g transform="translate(225,275)">
		<rect y="0" class="st126" width="25" height="25"/>
	</g>
	<g transform="translate(875,500)">
		<rect y="0" class="st127" width="25" height="25"/>
	</g>
	<g transform="translate(175,225)">
		<rect y="0" class="st92" width="25" height="25"/>
	</g>
</g>
</svg>
