<?xml version="1.0" encoding="utf-8"?>
<!-- Generator: Adobe Illustrator 19.2.1, SVG Export Plug-In . SVG Version: 6.00 Build 0)  -->
<svg version="1.1" id="canvas" xmlns="http://www.w3.org/2000/svg" xmlns:xlink="http://www.w3.org/1999/xlink" x="0px" y="0px"
	 viewBox="0 0 1000 1000" style="enable-background:new 0 0 1000 1000;" xml:space="preserve">
<style type="text/css">
	.st0{opacity:0.8;fill:#FCF6B9;enable-background:new    ;}
	.st1{opacity:0.8;fill:#7DB2D4;enable-background:new    ;}
	.st2{opacity:0.8;fill:#699EC9;enable-background:new    ;}
	.st3{opacity:0.8;fill:#8DC0DB;enable-background:new    ;}
	.st4{opacity:0.8;fill:#5A8DC0;enable-background:new    ;}
	.st5{opacity:0.8;fill:#A9D5E7;enable-background:new    ;}
	.st6{opacity:0.8;fill:#333C98;enable-background:new    ;}
	.st7{opacity:0.8;fill:#E0F2EA;enable-background:new    ;}
	.st8{opacity:0.8;fill:#6195C5;enable-background:new    ;}
	.st9{opacity:0.8;fill:#323896;enable-background:new    ;}
	.st10{opacity:0.8;fill:#4060AA;enable-background:new    ;}
	.st11{opacity:0.8;fill:#82B7D7;enable-background:new    ;}
	.st12{opacity:0.8;fill:#5180BA;enable-background:new    ;}
	.st13{opacity:0.8;fill:#BBE0ED;enable-background:new    ;}
	.st14{opacity:0.8;fill:#7CB2D4;enable-background:new    ;}
	.st15{opacity:0.8;fill:#83B8D7;enable-background:new    ;}
	.st16{opacity:0.8;fill:#5E91C3;enable-background:new    ;}
	.st17{opacity:0.8;fill:#3E5CA8;enable-background:new    ;}
	.st18{opacity:0.8;fill:#4871B2;enable-background:new    ;}
	.st19{opacity:0.8;fill:#80B5D6;enable-background:new    ;}
	.st20{opacity:0.8;fill:#3A52A3;enable-background:new    ;}
	.st21{opacity:0.8;fill:#6DA2CC;enable-background:new    ;}
	.st22{opacity:0.8;fill:#5384BC;enable-background:new    ;}
	.st23{opacity:0.8;fill:#6AA0CA;enable-background:new    ;}
	.st24{opacity:0.8;fill:#466CB0;enable-background:new    ;}
	.st25{opacity:0.8;fill:#689DC9;enable-background:new    ;}
	.st26{opacity:0.8;fill:#93C5DE;enable-background:new    ;}
	.st27{opacity:0.8;fill:#E5F5E5;enable-background:new    ;}
	.st28{opacity:0.8;fill:#E3F4E8;enable-background:new    ;}
	.st29{opacity:0.8;fill:#6BA0CB;enable-background:new    ;}
	.st30{opacity:0.8;fill:#37489E;enable-background:new    ;}
	.st31{opacity:0.8;fill:#4D7AB7;enable-background:new    ;}
	.st32{opacity:0.8;fill:#D3ECEF;enable-background:new    ;}
	.st33{opacity:0.8;fill:#679CC8;enable-background:new    ;}
	.st34{opacity:0.8;fill:#313695;enable-background:new    ;}
	.st35{opacity:0.8;fill:#75AAD0;enable-background:new    ;}
	.st36{opacity:0.8;fill:#4162AB;enable-background:new    ;}
	.st37{opacity:0.8;fill:#588ABF;enable-background:new    ;}
	.st38{opacity:0.8;fill:#76ACD1;enable-background:new    ;}
	.st39{opacity:0.8;fill:#9ECDE3;enable-background:new    ;}
	.st40{opacity:0.8;fill:#E9F6E1;enable-background:new    ;}
	.st41{opacity:0.8;fill:#95C6DF;enable-background:new    ;}
	.st42{opacity:0.8;fill:#8BBFDB;enable-background:new    ;}
	.st43{opacity:0.8;fill:#E4F4E7;enable-background:new    ;}
	.st44{opacity:0.8;fill:#6CA2CB;enable-background:new    ;}
	.st45{opacity:0.8;fill:#9ECEE3;enable-background:new    ;}
	.st46{opacity:0.8;fill:#476FB1;enable-background:new    ;}
	.st47{opacity:0.8;fill:#B0D9E9;enable-background:new    ;}
	.st48{opacity:0.8;fill:#A3D1E5;enable-background:new    ;}
	.st49{opacity:0.8;fill:#84B9D8;enable-background:new    ;}
	.st50{opacity:0.8;fill:#6EA3CC;enable-background:new    ;}
	.st51{opacity:0.8;fill:#94C6DE;enable-background:new    ;}
	.st52{opacity:0.8;fill:#70A6CD;enable-background:new    ;}
	.st53{opacity:0.8;fill:#466EB1;enable-background:new    ;}
	.st54{opacity:0.8;fill:#4A75B4;enable-background:new    ;}
	.st55{opacity:0.8;fill:#6A9FCA;enable-background:new    ;}
	.st56{opacity:0.8;fill:#598CC0;enable-background:new    ;}
	.st57{opacity:0.8;fill:#A4D1E5;enable-background:new    ;}
	.st58{opacity:0.8;fill:#6296C5;enable-background:new    ;}
	.st59{opacity:0.8;fill:#5788BE;enable-background:new    ;}
	.st60{opacity:0.8;fill:#92C4DE;enable-background:new    ;}
	.st61{opacity:0.8;fill:#5B8EC1;enable-background:new    ;}
	.st62{opacity:0.8;fill:#F9F8C2;enable-background:new    ;}
	.st63{opacity:0.8;fill:#B3DBEA;enable-background:new    ;}
	.st64{opacity:0.8;fill:#E6F5E5;enable-background:new    ;}
	.st65{opacity:0.8;fill:#AED8E9;enable-background:new    ;}
	.st66{opacity:0.8;fill:#6398C6;enable-background:new    ;}
	.st67{opacity:0.8;fill:#5F92C3;enable-background:new    ;}
	.st68{opacity:0.8;fill:#7CB1D4;enable-background:new    ;}
	.st69{opacity:0.8;fill:#4366AD;enable-background:new    ;}
	.st70{opacity:0.8;fill:#6094C4;enable-background:new    ;}
	.st71{opacity:0.8;fill:#37479E;enable-background:new    ;}
	.st72{opacity:0.8;fill:#FAF8C1;enable-background:new    ;}
	.st73{opacity:0.8;fill:#C6E6EF;enable-background:new    ;}
	.st74{opacity:0.8;fill:#71A7CE;enable-background:new    ;}
	.st75{opacity:0.8;fill:#A8D4E7;enable-background:new    ;}
	.st76{opacity:0.8;fill:#91C4DD;enable-background:new    ;}
	.st77{opacity:0.8;fill:#A2D0E4;enable-background:new    ;}
	.st78{opacity:0.8;fill:#DBF0EC;enable-background:new    ;}
	.st79{opacity:0.8;fill:#CAE8EF;enable-background:new    ;}
	.st80{opacity:0.8;fill:#6BA1CB;enable-background:new    ;}
	.st81{opacity:0.8;fill:#9DCDE2;enable-background:new    ;}
	.st82{opacity:0.8;fill:#79AED2;enable-background:new    ;}
	.st83{opacity:0.8;fill:#DDF1EC;enable-background:new    ;}
	.st84{opacity:0.8;fill:#B0DAEA;enable-background:new    ;}
</style>
<g>
	<g transform="translate(500,500)">
		<rect y="0" class="st0" width="25" height="25"/>
	</g>
	<g transform="translate(500,475)">
		<rect y="0" class="st1" width="25" height="25"/>
	</g>
	<g transform="translate(475,500)">
		<rect y="0" class="st2" width="25" height="25"/>
	</g>
	<g transform="translate(500,525)">
		<rect y="0" class="st3" width="25" height="25"/>
	</g>
	<g transform="translate(525,475)">
		<rect y="0" class="st4" width="25" height="25"/>
	</g>
	<g transform="translate(525,525)">
		<rect y="0" class="st5" width="25" height="25"/>
	</g>
	<g transform="translate(475,525)">
		<rect y="0" class="st6" width="25" height="25"/>
	</g>
	<g transform="translate(475,475)">
		<rect y="0" class="st7" width="25" height="25"/>
	</g>
	<g transform="translate(450,500)">
		<rect y="0" class="st8" width="25" height="25"/>
	</g>
	<g transform="translate(500,550)">
		<rect y="0" class="st9" width="25" height="25"/>
	</g>
	<g transform="translate(550,500)">
		<rect y="0" class="st10" width="25" height="25"/>
	</g>
	<g transform="translate(500,450)">
		<rect y="0" class="st11" width="25" height="25"/>
	</g>
	<g transform="translate(450,475)">
		<rect y="0" class="st12" width="25" height="25"/>
	</g>
	<g transform="translate(525,550)">
		<rect y="0" class="st13" width="25" height="25"/>
	</g>
	<g transform="translate(475,450)">
		<rect y="0" class="st14" width="25" height="25"/>
	</g>
	<g transform="translate(475,550)">
		<rect y="0" class="st15" width="25" height="25"/>
	</g>
	<g transform="translate(450,525)">
		<rect y="0" class="st16" width="25" height="25"/>
	</g>
	<g transform="translate(550,525)">
		<rect y="0" class="st17" width="25" height="25"/>
	</g>
	<g transform="translate(550,450)">
		<rect y="0" class="st18" width="25" height="25"/>
	</g>
	<g transform="translate(550,550)">
		<rect y="0" class="st19" width="25" height="25"/>
	</g>
	<g transform="translate(425,500)">
		<rect y="0" class="st20" width="25" height="25"/>
	</g>
	<g transform="translate(500,425)">
		<rect y="0" class="st21" width="25" height="25"/>
	</g>
	<g transform="translate(575,500)">
		<rect y="0" class="st22" width="25" height="25"/>
	</g>
	<g transform="translate(525,425)">
		<rect y="0" class="st23" width="25" height="25"/>
	</g>
	<g transform="translate(475,575)">
		<rect y="0" class="st24" width="25" height="25"/>
	</g>
	<g transform="translate(525,575)">
		<rect y="0" class="st25" width="25" height="25"/>
	</g>
	<g transform="translate(425,475)">
		<rect y="0" class="st26" width="25" height="25"/>
	</g>
	<g transform="translate(575,450)">
		<rect y="0" class="st27" width="25" height="25"/>
	</g>
	<g transform="translate(450,575)">
		<rect y="0" class="st28" width="25" height="25"/>
	</g>
	<g transform="translate(425,550)">
		<rect y="0" class="st29" width="25" height="25"/>
	</g>
	<g transform="translate(600,500)">
		<rect y="0" class="st30" width="25" height="25"/>
	</g>
	<g transform="translate(500,400)">
		<rect y="0" class="st31" width="25" height="25"/>
	</g>
	<g transform="translate(600,525)">
		<rect y="0" class="st32" width="25" height="25"/>
	</g>
	<g transform="translate(475,400)">
		<rect y="0" class="st33" width="25" height="25"/>
	</g>
	<g transform="translate(400,475)">
		<rect y="0" class="st25" width="25" height="25"/>
	</g>
	<g transform="translate(525,400)">
		<rect y="0" class="st19" width="25" height="25"/>
	</g>
	<g transform="translate(575,575)">
		<rect y="0" class="st34" width="25" height="25"/>
	</g>
	<g transform="translate(425,425)">
		<rect y="0" class="st35" width="25" height="25"/>
	</g>
	<g transform="translate(400,450)">
		<rect y="0" class="st36" width="25" height="25"/>
	</g>
	<g transform="translate(450,600)">
		<rect y="0" class="st37" width="25" height="25"/>
	</g>
	<g transform="translate(450,400)">
		<rect y="0" class="st38" width="25" height="25"/>
	</g>
	<g transform="translate(550,400)">
		<rect y="0" class="st39" width="25" height="25"/>
	</g>
	<g transform="translate(600,450)">
		<rect y="0" class="st40" width="25" height="25"/>
	</g>
	<g transform="translate(500,625)">
		<rect y="0" class="st41" width="25" height="25"/>
	</g>
	<g transform="translate(625,525)">
		<rect y="0" class="st42" width="25" height="25"/>
	</g>
	<g transform="translate(375,525)">
		<rect y="0" class="st31" width="25" height="25"/>
	</g>
	<g transform="translate(475,375)">
		<rect y="0" class="st43" width="25" height="25"/>
	</g>
	<g transform="translate(375,475)">
		<rect y="0" class="st25" width="25" height="25"/>
	</g>
	<g transform="translate(525,625)">
		<rect y="0" class="st44" width="25" height="25"/>
	</g>
	<g transform="translate(450,625)">
		<rect y="0" class="st45" width="25" height="25"/>
	</g>
	<g transform="translate(625,550)">
		<rect y="0" class="st46" width="25" height="25"/>
	</g>
	<g transform="translate(550,625)">
		<rect y="0" class="st47" width="25" height="25"/>
	</g>
	<g transform="translate(400,600)">
		<rect y="0" class="st48" width="25" height="25"/>
	</g>
	<g transform="translate(575,375)">
		<rect y="0" class="st49" width="25" height="25"/>
	</g>
	<g transform="translate(625,425)">
		<rect y="0" class="st46" width="25" height="25"/>
	</g>
	<g transform="translate(350,500)">
		<rect y="0" class="st50" width="25" height="25"/>
	</g>
	<g transform="translate(500,350)">
		<rect y="0" class="st51" width="25" height="25"/>
	</g>
	<g transform="translate(650,500)">
		<rect y="0" class="st52" width="25" height="25"/>
	</g>
	<g transform="translate(400,375)">
		<rect y="0" class="st53" width="25" height="25"/>
	</g>
	<g transform="translate(600,375)">
		<rect y="0" class="st54" width="25" height="25"/>
	</g>
	<g transform="translate(375,400)">
		<rect y="0" class="st55" width="25" height="25"/>
	</g>
	<g transform="translate(350,575)">
		<rect y="0" class="st34" width="25" height="25"/>
	</g>
	<g transform="translate(575,350)">
		<rect y="0" class="st41" width="25" height="25"/>
	</g>
	<g transform="translate(500,675)">
		<rect y="0" class="st56" width="25" height="25"/>
	</g>
	<g transform="translate(325,500)">
		<rect y="0" class="st57" width="25" height="25"/>
	</g>
	<g transform="translate(675,525)">
		<rect y="0" class="st58" width="25" height="25"/>
	</g>
	<g transform="translate(650,400)">
		<rect y="0" class="st34" width="25" height="25"/>
	</g>
	<g transform="translate(650,600)">
		<rect y="0" class="st59" width="25" height="25"/>
	</g>
	<g transform="translate(350,400)">
		<rect y="0" class="st31" width="25" height="25"/>
	</g>
	<g transform="translate(675,450)">
		<rect y="0" class="st60" width="25" height="25"/>
	</g>
	<g transform="translate(325,450)">
		<rect y="0" class="st59" width="25" height="25"/>
	</g>
	<g transform="translate(325,550)">
		<rect y="0" class="st61" width="25" height="25"/>
	</g>
	<g transform="translate(450,325)">
		<rect y="0" class="st62" width="25" height="25"/>
	</g>
	<g transform="translate(675,575)">
		<rect y="0" class="st60" width="25" height="25"/>
	</g>
	<g transform="translate(575,675)">
		<rect y="0" class="st63" width="25" height="25"/>
	</g>
	<g transform="translate(425,325)">
		<rect y="0" class="st14" width="25" height="25"/>
	</g>
	<g transform="translate(350,375)">
		<rect y="0" class="st64" width="25" height="25"/>
	</g>
	<g transform="translate(500,300)">
		<rect y="0" class="st65" width="25" height="25"/>
	</g>
	<g transform="translate(575,700)">
		<rect y="0" class="st66" width="25" height="25"/>
	</g>
	<g transform="translate(325,625)">
		<rect y="0" class="st67" width="25" height="25"/>
	</g>
	<g transform="translate(600,700)">
		<rect y="0" class="st68" width="25" height="25"/>
	</g>
	<g transform="translate(300,600)">
		<rect y="0" class="st69" width="25" height="25"/>
	</g>
	<g transform="translate(400,300)">
		<rect y="0" class="st12" width="25" height="25"/>
	</g>
	<g transform="translate(525,725)">
		<rect y="0" class="st70" width="25" height="25"/>
	</g>
	<g transform="translate(275,600)">
		<rect y="0" class="st71" width="25" height="25"/>
	</g>
	<g transform="translate(250,500)">
		<rect y="0" class="st72" width="25" height="25"/>
	</g>
	<g transform="translate(450,250)">
		<rect y="0" class="st73" width="25" height="25"/>
	</g>
	<g transform="translate(350,275)">
		<rect y="0" class="st74" width="25" height="25"/>
	</g>
	<g transform="translate(500,225)">
		<rect y="0" class="st75" width="25" height="25"/>
	</g>
	<g transform="translate(775,450)">
		<rect y="0" class="st76" width="25" height="25"/>
	</g>
	<g transform="translate(275,325)">
		<rect y="0" class="st77" width="25" height="25"/>
	</g>
	<g transform="translate(225,400)">
		<rect y="0" class="st78" width="25" height="25"/>
	</g>
	<g transform="translate(800,450)">
		<rect y="0" class="st79" width="25" height="25"/>
	</g>
	<g transform="translate(200,450)">
		<rect y="0" class="st80" width="25" height="25"/>
	</g>
	<g transform="translate(200,625)">
		<rect y="0" class="st81" width="25" height="25"/>
	</g>
	<g transform="translate(650,825)">
		<rect y="0" class="st82" width="25" height="25"/>
	</g>
	<g transform="translate(200,250)">
		<rect y="0" class="st83" width="25" height="25"/>
	</g>
	<g transform="translate(825,275)">
		<rect y="0" class="st84" width="25" height="25"/>
	</g>
</g>
</svg>
